/* XPM */
static char *_426032e83004ca1c3682fc8a11713e2jJfn9clTcqHeKQ4x[] = {
/* columns rows colors chars-per-pixel */
"16 16 68 1 ",
"  c None",
". c #0C4681",
"X c #1F4380",
"o c #194D8E",
"O c #20508B",
"+ c #355C95",
"@ c #2E6B9F",
"# c #40649C",
"$ c #4E6D9B",
"% c #59759F",
"& c #4067A5",
"* c #5374AC",
"= c #5D77AB",
"- c #5578B3",
"; c #5F7FB6",
": c #5C83AF",
"> c #538BBF",
", c #538CBF",
"< c #5F88BF",
"1 c #6988B6",
"2 c #6F8ABF",
"3 c #6A8FBD",
"4 c #7188B7",
"5 c #5187C2",
"6 c #5986C1",
"7 c #5E85C1",
"8 c #5588C1",
"9 c #5C8AC6",
"0 c #5B8DCE",
"q c #5E97C7",
"w c #5F90C8",
"e c #678AC5",
"r c #638BC8",
"t c #628EC9",
"y c #618CCA",
"u c #688DC9",
"i c #6A9FCF",
"p c #7292C5",
"a c #7997C7",
"s c #6C97D4",
"d c #6E9AD4",
"f c #739BD5",
"g c #76A6D9",
"h c #7BA4D8",
"j c #7EADE1",
"k c #79B3E3",
"l c #7DB8E7",
"z c #83AADD",
"x c #89AADF",
"c c #8BB3DE",
"v c #87AAE2",
"b c #82ACE6",
"n c #88AEE1",
"m c #8EAEE2",
"M c #8EBFE9",
"N c #93BEEC",
"B c #9ABFEF",
"V c #8FC5EE",
"C c #9DC0E2",
"Z c #9FC3E3",
"A c #95C0EF",
"S c #9BCCF9",
"D c #98D1F7",
"F c #A2C9E8",
"G c #ABC4F2",
"H c #ABC9FC",
"J c #A8D0FC",
"K c #A3D8FC",
/* pixels */
"                ",
"                ",
"                ",
"    =erbn%      ",
"   42uy9<1      ",
"   Gms0oOz      ",
"    Bj5.>N      ",
"     Mq@l       ",
"      Ak,86fvp$ ",
"      KDiwy7-1a ",
"        Sgd&X*H ",
"         Ah+#x  ",
"         Jc:3   ",
"          FCC   ",
"                ",
"                "
};
