/* XPM */
static char *result[] = {
/* columns rows colors chars-per-pixel */
"32 32 137 2 ",
"   c #164B89",
".  c #18508B",
"X  c #1C5491",
"o  c #284D8A",
"O  c #225590",
"+  c #225C95",
"@  c #2A5995",
"#  c #235999",
"$  c #285998",
"%  c #325591",
"&  c #345993",
"*  c #345B98",
"=  c #2E6A9F",
"-  c #3E649A",
";  c #3567A7",
":  c #3F65A3",
">  c #356CA3",
",  c #3773A7",
"<  c #4C6B98",
"1  c #57739C",
"2  c #446CA4",
"3  c #4A6CA5",
"4  c #496EAA",
"5  c #4372A9",
"6  c #4B73AB",
"7  c #5675A4",
"8  c #5B78A2",
"9  c #5072AB",
"0  c #5C76A9",
"q  c #537AA9",
"w  c #5C7CAD",
"e  c #4077B4",
"r  c #4179B2",
"t  c #4C79B4",
"y  c #477BBB",
"u  c #537BB5",
"i  c #5C7BB1",
"p  c #507FBD",
"a  c #627BAF",
"s  c #627FB5",
"d  c #4A84B7",
"f  c #4B85B9",
"g  c #4C88BB",
"h  c #5C83B2",
"j  c #5A82BF",
"k  c #6482AF",
"l  c #6685B3",
"z  c #6F86B6",
"x  c #6486BC",
"c  c #6A86BB",
"v  c #6B8ABB",
"b  c #6F95BE",
"n  c #5484C0",
"m  c #5987C3",
"M  c #568BC2",
"N  c #5C8BC5",
"B  c #5B93C7",
"V  c #5E91CE",
"C  c #5F99CB",
"Z  c #6587C1",
"A  c #648AC7",
"S  c #698DC3",
"D  c #638DC9",
"F  c #6790C7",
"G  c #6A91C5",
"H  c #6293CC",
"J  c #6A93CC",
"K  c #639CCD",
"L  c #699ACF",
"P  c #7091C0",
"I  c #7C95C7",
"U  c #769BC5",
"Y  c #789DC7",
"T  c #7392C8",
"R  c #779BCC",
"E  c #7B9BCE",
"W  c #6793D1",
"Q  c #6C95D0",
"!  c #649FD0",
"~  c #6C9BD4",
"^  c #729AD2",
"/  c #7A9DD5",
"(  c #749FDA",
")  c #79A1CF",
"_  c #67A2D3",
"`  c #6EA5D5",
"'  c #72A5D6",
"]  c #7EA2D4",
"[  c #74A8D6",
"{  c #73A1D8",
"}  c #7CA4DC",
"|  c #72ADDD",
" . c #7BAADC",
".. c #7BA5E0",
"X. c #7BB2E1",
"o. c #8097C5",
"O. c #88A6D6",
"+. c #88AFD7",
"@. c #83A4DB",
"#. c #8DAADC",
"$. c #8FB2D7",
"%. c #92B5DA",
"&. c #83ABE2",
"*. c #8CAEE3",
"=. c #86AFE8",
"-. c #90AEE1",
";. c #84B3E2",
":. c #89B4E6",
">. c #86BFE9",
",. c #8CBCEA",
"<. c #9BB4E3",
"1. c #94BCE6",
"2. c #94B7EA",
"3. c #98B7E9",
"4. c #94BDEC",
"5. c #9ABDEE",
"6. c #8CC3EE",
"7. c #9EC1E3",
"8. c #94C2ED",
"9. c #9EC5E8",
"0. c #93C4F2",
"q. c #9CC5F3",
"w. c #97CEF6",
"e. c #9ECFFB",
"r. c #9ED4FA",
"t. c #A0C4E5",
"y. c #A2C8E7",
"u. c #A3CAE8",
"i. c #A4C1F1",
"p. c #AEC7F4",
"a. c #A2CAF5",
"s. c #A5CEFA",
"d. c #B0CEFF",
"f. c #A1D3FA",
"g. c #AAD1FE",
"h. c #A3D9FD",
"j. c None",
/* pixels */
"j.j.j.j.j.j.j.j.j.j.j.j.j.j.j.j.j.j.j.j.j.j.j.j.j.j.j.j.j.j.j.j.",
"j.j.j.j.j.j.j.j.j.j.j.j.j.j.j.j.j.j.j.j.j.j.j.j.j.j.j.j.j.j.j.j.",
"j.j.j.j.j.j.j.j.j.j.j.j.j.j.j.j.j.j.j.j.j.j.j.j.j.j.j.j.j.j.j.j.",
"j.j.j.j.j.j.j.j.j.j.j.j.j.j.j.j.j.j.j.j.j.j.j.j.j.j.j.j.j.j.j.j.",
"j.j.j.j.j.j.j.j.j.j.j.j.j.j.j.j.j.j.j.j.j.j.j.j.j.j.j.j.j.j.j.j.",
"j.j.j.j.j.j.j.j.j.j.j.j.j.j.j.j.j.j.j.j.j.j.j.j.j.j.j.j.j.j.j.j.",
"j.j.j.j.j.j.j.j.0 a Z A A Q ..=.:.] k 1 j.j.j.j.j.j.j.j.j.j.j.j.",
"j.j.j.j.j.j.j.j.s s Z A A J ( ..} R k 8 j.j.j.j.j.j.j.j.j.j.j.j.",
"j.j.j.j.j.j.z z z c A D A D W D J A l l j.j.j.j.j.j.j.j.j.j.j.j.",
"j.j.j.j.j.j.o.I I T J J V m p y t h v P j.j.j.j.j.j.j.j.j.j.j.j.",
"j.j.j.j.j.j.<.<.#.@.^ W W n ; $ @ : G ] j.j.j.j.j.j.j.j.j.j.j.j.",
"j.j.j.j.j.j.p.i.3.*.( Q V y #   + 5 R :.j.j.j.j.j.j.j.j.j.j.j.j.",
"j.j.j.j.j.j.j.j.5.2.;.( V , X . > j X.1.j.j.j.j.j.j.j.j.j.j.j.j.",
"j.j.j.j.j.j.j.j.5.4.:. .C y + + d ` :.8.j.j.j.j.j.j.j.j.j.j.j.j.",
"j.j.j.j.j.j.j.j.j.j.,.X.! d = , ! X.j.j.j.j.j.j.j.j.j.j.j.j.j.j.",
"j.j.j.j.j.j.j.j.j.j.8.;.[ H d g _ | j.j.j.j.j.j.j.j.j.j.j.j.j.j.",
"j.j.j.j.j.j.j.j.j.j.j.j.:.X.` ! C B M g n A Q / &.&./ c 7 < j.j.",
"j.j.j.j.j.j.j.j.j.j.j.j.w.8.6.X.C M M N m N W ^ / / T z w 7 j.j.",
"j.j.j.j.j.j.j.j.j.j.j.j.f.r.w.6.' B B N N A A Z Z Z z v v v j.j.",
"j.j.j.j.j.j.j.j.j.j.j.j.h.h.r.0.X.' L J W N j u 4 4 i v o.O.j.j.",
"j.j.j.j.j.j.j.j.j.j.j.j.j.j.j.j.0.:. .~ ~ D t 2 % % 3 c -.i.j.j.",
"j.j.j.j.j.j.j.j.j.j.j.j.j.j.j.j.r.0.:. .{ D 6 * o % 9 T 5.d.j.j.",
"j.j.j.j.j.j.j.j.j.j.j.j.j.j.j.j.j.j.,.:. .F 2 @ % 3 S @.j.j.j.j.",
"j.j.j.j.j.j.j.j.j.j.j.j.j.j.j.j.j.j.q.0.;.T 6 < < i / *.j.j.j.j.",
"j.j.j.j.j.j.j.j.j.j.j.j.j.j.j.j.j.j.f.q.1.) h q u x j.j.j.j.j.j.",
"j.j.j.j.j.j.j.j.j.j.j.j.j.j.j.j.j.j.g.a.1.+.) b U Y j.j.j.j.j.j.",
"j.j.j.j.j.j.j.j.j.j.j.j.j.j.j.j.j.j.j.j.7.7.%.$.$.%.j.j.j.j.j.j.",
"j.j.j.j.j.j.j.j.j.j.j.j.j.j.j.j.j.j.j.j.u.9.t.t.7.7.j.j.j.j.j.j.",
"j.j.j.j.j.j.j.j.j.j.j.j.j.j.j.j.j.j.j.j.j.j.j.j.j.j.j.j.j.j.j.j.",
"j.j.j.j.j.j.j.j.j.j.j.j.j.j.j.j.j.j.j.j.j.j.j.j.j.j.j.j.j.j.j.j.",
"j.j.j.j.j.j.j.j.j.j.j.j.j.j.j.j.j.j.j.j.j.j.j.j.j.j.j.j.j.j.j.j.",
"j.j.j.j.j.j.j.j.j.j.j.j.j.j.j.j.j.j.j.j.j.j.j.j.j.j.j.j.j.j.j.j."
};
