/* XPM */
static char *b979478f6f484e5fb3b69ee49f6fe33fMoWmUf9df7K3wmVH[] = {
/* columns rows colors chars-per-pixel */
"16 16 114 2 ",
"   c None",
".  c black",
"X  c #000002",
"o  c #000103",
"O  c #010204",
"+  c #000006",
"@  c #000008",
"#  c #000009",
"$  c #00000B",
"%  c #06060A",
"&  c #00000C",
"*  c #06060D",
"=  c #06060E",
"-  c #06070E",
";  c #07070E",
":  c #06080F",
">  c #07080F",
",  c #0A0B0F",
"<  c #0D0D0F",
"1  c #030411",
"2  c #0B0B10",
"3  c #0A0A11",
"4  c #0F0F10",
"5  c #0D0E12",
"6  c #0E0E13",
"7  c #0F1015",
"8  c #0D1016",
"9  c #0D1117",
"0  c #0F1119",
"q  c #0C1219",
"w  c #0F121A",
"e  c #111217",
"r  c #141518",
"t  c #16161C",
"y  c #16191C",
"u  c #181B1F",
"i  c #1A1B1E",
"p  c #1A1C1F",
"a  c #1E202F",
"s  c #26272B",
"d  c #26272C",
"f  c #27282E",
"g  c #222831",
"h  c #2F2F33",
"j  c #2B2D37",
"k  c #2E303F",
"l  c #30323B",
"z  c #333541",
"x  c #353642",
"c  c #373945",
"v  c #353947",
"b  c #393C40",
"n  c #383945",
"m  c #373A49",
"M  c #3F4148",
"N  c #4F5262",
"B  c #555B64",
"V  c #585D65",
"C  c #5B5E64",
"Z  c #5C5E68",
"A  c #5C5F69",
"S  c #5A5F6D",
"D  c #5F606A",
"F  c #62646D",
"G  c #626471",
"H  c #646772",
"J  c #70747E",
"K  c #767781",
"L  c #7B7D88",
"P  c #7D838D",
"I  c #80828D",
"U  c #848590",
"Y  c #858896",
"T  c #888B99",
"R  c #888E99",
"E  c #9396A4",
"W  c #9D9EA0",
"Q  c #9B9DA4",
"!  c #9A9FAB",
"~  c #A1A2A8",
"^  c #A4A5AE",
"/  c #A1A4B0",
"(  c #A5AAB6",
")  c #ABAEB8",
"_  c #ACB1B7",
"`  c #B1B4BF",
"'  c #B5B8BC",
"]  c #B9BBC1",
"[  c #BBBDC3",
"{  c #B8BFC7",
"}  c #BDBFC4",
"|  c #BDBEC5",
" . c #BAC0C7",
".. c #BAC1CA",
"X. c #BBC1CA",
"o. c #C2C4CA",
"O. c #C5C7CF",
"+. c #C6C8CD",
"@. c #C0C5D0",
"#. c #C7C9D1",
"$. c #C5CCD7",
"%. c #C8CAD3",
"&. c #C9CBD6",
"*. c #CBCDD7",
"=. c #CDCFD5",
"-. c #CDD0D8",
";. c #D0D2DD",
":. c #D7D8DB",
">. c #DBDDE5",
",. c #EEF2F3",
"<. c #EFF2F3",
"1. c #EFF2F4",
"2. c #F0F3F5",
"3. c #F5F8FA",
/* pixels */
"            u p p y             ",
"          d | 1.,.' s           ",
"        7 ] +.1.2.=.[ 5         ",
"        6 o.-.#.%.#.| e         ",
"        2 ^ &.-.>.&.^ 2         ",
"        ; D U / ~ P F ;         ",
"        ; Z 1 N a & A ;         ",
"        : z m ) ` G x           ",
"          & z K L E n           ",
"      . # x v O # S H 1         ",
"    < W Q K ( Y T ! j M %       ",
"    , :.3.k P R $.@.e C <       ",
"      h b : B g X.X.q t         ",
"          : C q {  .q           ",
"            7 7 _ f             ",
"          O O O r               "
};
