/* XPM */
static char *result[] = {
/* columns rows colors chars-per-pixel */
"32 32 123 2 ",
"   c #010204",
".  c #04050B",
"X  c #07080C",
"o  c #090A0D",
"O  c #070D14",
"+  c #0A0B13",
"@  c #0E0F1A",
"#  c #0F1117",
"$  c #0F1219",
"%  c #111316",
"&  c #131519",
"*  c #17181C",
"=  c #18181D",
"-  c #131420",
";  c #171820",
":  c #1B1D23",
">  c #1C1D2A",
",  c #1F2127",
"<  c #1F232C",
"1  c #212225",
"2  c #22242C",
"3  c #2B2B2E",
"4  c #222330",
"5  c #272A34",
"6  c #2A2C33",
"7  c #2C2E3A",
"8  c #2F313D",
"9  c #323236",
"0  c #33343B",
"q  c #37383D",
"w  c #383A3E",
"e  c #323441",
"r  c #363B42",
"t  c #3A3C44",
"y  c #3C3E4A",
"u  c #3F4246",
"i  c #3F444B",
"p  c #414246",
"a  c #42444B",
"s  c #47494F",
"d  c #494B4E",
"f  c #444652",
"g  c #454852",
"h  c #494C54",
"j  c #4B4D59",
"k  c #4F515D",
"l  c #515255",
"z  c #53555C",
"x  c #4F5160",
"c  c #525561",
"v  c #555A66",
"b  c #5A5B63",
"n  c #595B6A",
"m  c #5F6061",
"M  c #5D616C",
"N  c #62646D",
"B  c #65686E",
"V  c #636571",
"C  c #666873",
"Z  c #696B74",
"A  c #676B78",
"S  c #6D6E7A",
"D  c #6E707B",
"F  c #73747B",
"G  c #75787D",
"H  c #797A7F",
"J  c #737681",
"K  c #757A86",
"L  c #7A7C84",
"P  c #7C7E8A",
"I  c #7D808D",
"U  c #83848C",
"Y  c #828693",
"T  c #858A95",
"R  c #8B8D94",
"E  c #8C8E9A",
"W  c #8D929C",
"Q  c #909197",
"!  c #92959C",
"~  c #999C9F",
"^  c #9195A1",
"/  c #9499A3",
"(  c #9C9DA0",
")  c #979CA8",
"_  c #9D9FAA",
"`  c #9DA1A6",
"'  c #9EA1AC",
"]  c #9FA3B0",
"[  c #A0A2A7",
"{  c #A3A5AB",
"}  c #A6AAB5",
"|  c #AAACB6",
" . c #AAADB8",
".. c #AFB2B4",
"X. c #B1B4B7",
"o. c #B1B4BD",
"O. c #B9BBBE",
"+. c #AEB4C0",
"@. c #B0B6C1",
"#. c #B6B9C2",
"$. c #BABDC2",
"%. c #BDBFCA",
"&. c #BEC0C6",
"*. c #BDC2CD",
"=. c #C3C5CD",
"-. c #C7C9CE",
";. c #C3C7D1",
":. c #C5CAD3",
">. c #CBCDD5",
",. c #CBCFD9",
"<. c #CED1D6",
"1. c #CFD1D9",
"2. c #D2D4DB",
"3. c #D5D8DC",
"4. c #D5D7E0",
"5. c #DCDDE0",
"6. c #DEE1E5",
"7. c #E0E3E7",
"8. c #E7EAED",
"9. c #E9EDEE",
"0. c #EAEDF0",
"q. c #F6F9FB",
"w. c None",
/* pixels */
"w.w.w.w.w.w.w.w.w.w.w.w.= * & & & % % % w.w.w.w.w.w.w.w.w.w.w.w.",
"w.w.w.w.w.w.w.w.w.w.w.w.u p d l l d p w w.w.w.w.w.w.w.w.w.w.w.w.",
"w.w.w.w.w.w.w.w.w.w.1 p L ( X.$.O...~ G p : w.w.w.w.w.w.w.w.w.w.",
"w.w.w.w.w.w.w.w.w.w.p N { 2.9.q.q.9.<.[ B p w.w.w.w.w.w.w.w.w.w.",
"w.w.w.w.w.w.w.w.o q J { $.2.8.q.q.9.3.&.{ H q X w.w.w.w.w.w.w.w.",
"w.w.w.w.w.w.w.w.o q Q -.-.1.6.8.9.7.2.>.-.Q w o w.w.w.w.w.w.w.w.",
"w.w.w.w.w.w.w.w.o q ! >.>.1.1.1.2.<.>.>.-.Q w + w.w.w.w.w.w.w.w.",
"w.w.w.w.w.w.w.w.o q Q =.>.1.>.>.<.>.>.:.=.R w o w.w.w.w.w.w.w.w.",
"w.w.w.w.w.w.w.w.X 9 U $.>.,.,.1.4.4.1.=.#.U 9 o w.w.w.w.w.w.w.w.",
"w.w.w.w.w.w.w.w.. 6 S _ @.%.=.;.1.>.%.o._ D 3 . w.w.w.w.w.w.w.w.",
"w.w.w.w.w.w.w.w.. , z L E _ } o.o.| _ E P b , . w.w.w.w.w.w.w.w.",
"w.w.w.w.w.w.w.w.. : s N N S Y E U H C M N s : . w.w.w.w.w.w.w.w.",
"w.w.w.w.w.w.w.w.. : h k 7 8 x n f e > 7 k h : . w.w.w.w.w.w.w.w.",
"w.w.w.w.w.w.w.w.. ; y f > 4 x M j e > 4 f f , . w.w.w.w.w.w.w.w.",
"w.w.w.w.w.w.w.w.X - 8 t e f P ) ^ P n f a y w.w.w.w.w.w.w.w.w.w.",
"w.w.w.w.w.w.w.w.X @ < 7 e x Y }  ._ I V a e w.w.w.w.w.w.w.w.w.w.",
"w.w.w.w.w.w.w.w.w.w.O - 7 i I I E E ^ J j e w.w.w.w.w.w.w.w.w.w.",
"w.w.w.w.w.w.w.w.w.w.O - 5 i l v b C I K c y w.w.w.w.w.w.w.w.w.w.",
"w.w.w.w.w.w.    . O < 7 u 5 < & - 7 n A V g > . w.w.w.w.w.w.w.w.",
"w.w.w.w.w.w.1 1 2 7 i i v i 5 : : 8 n A M f 4 @ w.w.w.w.w.w.w.w.",
"w.w.w.w.o 3 m F F S Z J I I I I V S Y K x e 0 2 % . w.w.w.w.w.w.",
"w.w.w.w.. 9 U O.$.{ K J I ] ) I ) ] } T a 7 p t = X w.w.w.w.w.w.",
"w.w.w.w.. q ( 5.8.&.C x I I I ] +.%.%.^ t 2 s a : o w.w.w.w.w.w.",
"w.w.w.w.. w R O.-.[ h e M I I I @.,.,.^ t : t p 1 o w.w.w.w.w.w.",
"w.w.w.w.w.w.l m B k 2 < k m i M ] ,.*.! r & : 3 w.w.w.w.w.w.w.w.",
"w.w.w.w.w.w.3 9 9 3 # * i i < i / *.:./ r + @ & w.w.w.w.w.w.w.w.",
"w.w.w.w.w.w.w.w.w.w.X , j i < u / *.:.! r O w.w.w.w.w.w.w.w.w.w.",
"w.w.w.w.w.w.w.w.w.w.X , i u , u W &.{ K r O w.w.w.w.w.w.w.w.w.w.",
"w.w.w.w.w.w.w.w.w.w.w.w., : % q W ` B i w.w.w.w.w.w.w.w.w.w.w.w.",
"w.w.w.w.w.w.w.w.w.w.w.w.o X X 9 B G i , w.w.w.w.w.w.w.w.w.w.w.w.",
"w.w.w.w.w.w.w.w.w.w.          & 9 w w.w.w.w.w.w.w.w.w.w.w.w.w.w.",
"w.w.w.w.w.w.w.w.w.w.            o % w.w.w.w.w.w.w.w.w.w.w.w.w.w."
};
