/* XPM */
static char *cc5606cd2eb14dc7880f276625b2f8f8ODQpeWtMP470mN7U[] = {
/* columns rows colors chars-per-pixel */
"16 16 255 2 ",
"   c #0F2D35",
".  c #425D66",
"X  c #071421",
"o  c #0F1A25",
"O  c #04181F",
"+  c #536D6F",
"@  c #1F3E3C",
"#  c #001F19",
"$  c #12342E",
"%  c #587675",
"&  c #021C20",
"*  c #061B23",
"=  c #001B20",
"-  c #4F7276",
";  c #1E3A45",
":  c #081922",
">  c #0A3038",
",  c #2D4750",
"<  c #071321",
"1  c #19232E",
"2  c #0D2029",
"3  c #385458",
"4  c #163639",
"5  c #001F1E",
"6  c #0F2F2E",
"7  c #456262",
"8  c #03171D",
"9  c #25353E",
"0  c #1A363C",
"q  c #36585D",
"w  c #18343E",
"e  c #091C26",
"r  c #052029",
"t  c #182B37",
"y  c #0C1524",
"u  c #192332",
"i  c #0E2531",
"p  c #22414A",
"a  c #14363D",
"s  c #082B31",
"d  c #0A2B32",
"f  c #25434B",
"g  c #051B25",
"h  c #26313D",
"j  c #1E333C",
"k  c #244047",
"l  c #142C37",
"z  c #768891",
"x  c #192934",
"c  c #0F1726",
"v  c #14202F",
"b  c #0B232F",
"n  c #00252E",
"m  c #7BA6AC",
"M  c #97C3C9",
"N  c #2A555C",
"B  c #032630",
"V  c #051925",
"C  c #0E1B27",
"Z  c #091924",
"A  c #061D25",
"S  c #071C28",
"D  c #14232D",
"F  c #192D36",
"G  c #1B2B35",
"H  c #091522",
"J  c #11222E",
"K  c #0E2F37",
"L  c #02272B",
"P  c #7DACAD",
"I  c #9BCFD0",
"U  c #0E3739",
"Y  c #0B2B31",
"T  c #0D262E",
"R  c #061420",
"E  c #0F1B24",
"W  c #081822",
"Q  c #051723",
"!  c #091622",
"~  c #1D3039",
"^  c #182731",
"/  c #0E1A25",
"(  c #051921",
")  c #547377",
"_  c #305655",
"`  c #7BACA8",
"'  c #94CAC5",
"]  c #204B47",
"[  c #658B8B",
"{  c #082227",
"}  c #0E1823",
"|  c #0A1723",
" . c #0B1B27",
".. c #0B1923",
"X. c #1A2B35",
"o. c #0A1A25",
"O. c #091720",
"+. c #4E6166",
"@. c #4F6865",
"#. c #002118",
"$. c #719D93",
"%. c #89B7AD",
"&. c #0A3126",
"*. c #264742",
"=. c #596E71",
"-. c #06131B",
";. c #0B151F",
":. c #0A1623",
">. c #0B1F2C",
",. c #031720",
"<. c #1E2F38",
"1. c #1B2932",
"2. c #011018",
"3. c #718184",
"4. c #6E8482",
"5. c #001A12",
"6. c #799A91",
"7. c #93B7AD",
"8. c #092921",
"9. c #233D3A",
"0. c #617073",
"q. c #162027",
"w. c #19212B",
"e. c #0A1622",
"r. c #6A7B87",
"t. c #1C323A",
"y. c #1B2C35",
"u. c #091922",
"i. c #08121A",
"p. c #767E84",
"a. c #798184",
"s. c #061414",
"d. c #7B8B8A",
"f. c #97A9A8",
"g. c #132524",
"h. c #333E42",
"j. c #646C73",
"k. c #141C24",
"l. c #171F29",
"z. c #0D1822",
"x. c #0D202A",
"c. c #081C25",
"v. c #1E2831",
"b. c #0F1820",
"n. c #11141A",
"m. c #464448",
"M. c #857F80",
"N. c #393635",
"B. c #1D1D18",
"V. c #1C1C17",
"C. c #2A2927",
"Z. c #777576",
"A. c #57555B",
"S. c #1F2129",
"D. c #1D212B",
"F. c #0E1521",
"G. c #081B27",
"H. c #0F242F",
"J. c #302C3B",
"K. c #1A151F",
"L. c #191015",
"P. c #1E0F0C",
"I. c #69564C",
"U. c #837162",
"Y. c #41311B",
"T. c #362711",
"R. c #726452",
"E. c #7C6D63",
"W. c #231614",
"Q. c #241C20",
"!. c #231C27",
"~. c #252433",
"^. c #102430",
"/. c #79929A",
"(. c #302634",
"). c #1B111B",
"_. c #1E1317",
"`. c #251412",
"'. c #270F08",
"]. c #9F897B",
"[. c #E4D1C0",
"{. c #D9C8B5",
"}. c #C0AFA0",
"|. c #2E1D14",
" X c #1F1210",
".X c #211A1E",
"XX c #231A26",
"oX c #292533",
"OX c #142934",
"+X c #93B0B7",
"@X c #312731",
"#X c #1E161E",
"$X c #1A141B",
"%X c #1C1117",
"&X c #221118",
"*X c #281A1E",
"=X c #2A1E21",
"-X c #261F20",
";X c #241D20",
":X c #22181E",
">X c #2B272D",
",X c #1F2025",
"<X c #222026",
"1X c #282932",
"2X c #162C35",
"3X c #0A2830",
"4X c #3D2A33",
"5X c #23131B",
"6X c #1F141D",
"7X c #2B1C27",
"8X c #2B1A26",
"9X c #1E111E",
"0X c #2A232F",
"qX c #1B1723",
"wX c #191420",
"eX c #18121D",
"rX c #16111A",
"tX c #15141B",
"yX c #171219",
"uX c #19151E",
"iX c #85959E",
"pX c #26434A",
"aX c #4F2835",
"sX c #35121E",
"dX c #39202B",
"fX c #301822",
"gX c #331A26",
"hX c #22101B",
"jX c #30262F",
"kX c #1D161E",
"lX c #211A21",
"zX c #31242D",
"xX c #1D1119",
"cX c #1E121A",
"vX c #34212D",
"bX c #2C1B28",
"nX c #1E2B36",
"mX c #93B1B7",
"MX c #4A2431",
"NX c #361721",
"BX c #3B222B",
"VX c #341D25",
"CX c #351E26",
"ZX c #1C0C13",
"AX c #372D33",
"SX c #201A1E",
"DX c #1E161B",
"FX c #372A31",
"GX c #261A21",
"HX c #2E2128",
"JX c #36222C",
"KX c #2D1A26",
"LX c #757D85",
"PX c #223B40",
"IX c white",
/* pixels */
"  . X o O + @ # $ % & * = - ; : ",
"> , < 1 2 3 4 5 6 7 8 9 0 q w e ",
"r t y u i p a s d f g h j k l z ",
"r x c v b n m M N B V C Z A S D ",
"F G H J K L P I U Y T R E W Q ! ",
"~ ^ / ( ) _ ` ' ] [ { / } |  ...",
"X.o.O.+.@.#.$.%.&.*.=.-.;.:.>.,.",
"<.1.2.3.4.5.6.7.8.9.0.q.w.e.r.t.",
"y.u.i.p.a.s.d.f.g.h.j.k.l.z.x.c.",
"v.b.n.m.M.N.B.V.C.Z.A.S.D.F.G.H.",
"J.K.L.P.I.U.Y.T.R.E.W.Q.!.~.^./.",
"(.)._.`.'.].[.{.}.|. X.XXXoXOX+X",
"@X#X$X%X&X*X=X-X;X:X>X,X<X1X2X3X",
"4X5X6X7X8X9X0XqXwXeXrXtXyXuXiXpX",
"aXsXdXfXgXhXjXkXlXzXxXcXvXbXnXmX",
"MXNXBXVXCXZXAXSXDXFXGXHXJXKXLXPX"
};
