/* XPM */
static char *result[] = {
/* columns rows colors chars-per-pixel */
"32 32 214 2 ",
"   c #1C0E0D",
".  c #1D190F",
"X  c #1B0F12",
"o  c #06141C",
"O  c #0A141C",
"+  c #01191F",
"@  c #1D1216",
"#  c #15131B",
"$  c #1C141C",
"%  c #1E191E",
"&  c #1F1B11",
"*  c #220D0A",
"=  c #26170E",
"-  c #200F13",
";  c #221414",
":  c #23141C",
">  c #22191C",
",  c #281B18",
"<  c #311719",
"1  c #02221D",
"2  c #2D2517",
"3  c #36261E",
"4  c #061721",
"5  c #0B1622",
"6  c #061922",
"7  c #0B1A25",
"8  c #051E28",
"9  c #0C1E29",
"0  c #1C1621",
"q  c #131C25",
"w  c #1E1C24",
"e  c #121E2A",
"r  c #1A1E2A",
"t  c #221622",
"y  c #241B23",
"u  c #2B1B24",
"i  c #241E2A",
"p  c #2C1E2A",
"a  c #2D1724",
"s  c #341B25",
"d  c #3B1925",
"f  c #321F2A",
"g  c #391F29",
"h  c #361621",
"j  c #052323",
"k  c #0C2B26",
"l  c #04242C",
"z  c #0B222B",
"x  c #09292A",
"c  c #06282C",
"v  c #13222D",
"b  c #1D222B",
"n  c #152B2A",
"m  c #0C3026",
"M  c #1B342D",
"N  c #153029",
"B  c #0C2530",
"V  c #0B2C33",
"C  c #072731",
"Z  c #152531",
"A  c #142B33",
"S  c #1B2B35",
"D  c #162E39",
"F  c #1D2E39",
"G  c #1A2733",
"H  c #0F343B",
"J  c #143233",
"K  c #1A3433",
"L  c #1A3B34",
"P  c #14333B",
"I  c #1B333C",
"U  c #1B3B3D",
"Y  c #153C38",
"T  c #23212A",
"R  c #2C222C",
"E  c #232C2B",
"W  c #292427",
"Q  c #32242C",
"!  c #3A222B",
"~  c #312A2F",
"^  c #382D29",
"/  c #232432",
"(  c #292431",
")  c #222A32",
"_  c #292E36",
"`  c #2C2C39",
"'  c #312733",
"]  c #332835",
"[  c #312D3A",
"{  c #3A2C36",
"}  c #24343D",
"|  c #2B323B",
" . c #293636",
".. c #323533",
"X. c #353839",
"o. c #45222E",
"O. c #48222F",
"+. c #48362C",
"@. c #4E2935",
"#. c #482633",
"$. c #423935",
"%. c #44373B",
"&. c #514637",
"*. c #62523C",
"=. c #1B3B42",
"-. c #153740",
";. c #223641",
":. c #243C44",
">. c #2C3F49",
",. c #273E49",
"<. c #353B44",
"1. c #1C434A",
"2. c #1D4043",
"3. c #244343",
"4. c #2A4C44",
"5. c #25424A",
"6. c #2B434B",
"7. c #2C4B4B",
"8. c #234841",
"9. c #344444",
"0. c #344B4D",
"q. c #3C4A4D",
"w. c #2B544D",
"e. c #27504E",
"r. c #33504D",
"t. c #2A4750",
"y. c #2C4B52",
"u. c #244950",
"i. c #334B54",
"p. c #334F58",
"a. c #2B5054",
"s. c #2D5258",
"d. c #395557",
"f. c #35545B",
"g. c #3E5B5A",
"h. c #375757",
"j. c #38625D",
"k. c #3C5D62",
"l. c #376166",
"z. c #396463",
"x. c #484544",
"c. c #554943",
"v. c #584B46",
"b. c #5A524F",
"n. c #435B5E",
"m. c #49565A",
"M. c #52565E",
"N. c #575657",
"B. c #4C4D54",
"V. c #655447",
"C. c #675648",
"Z. c #695E51",
"A. c #75634F",
"S. c #6C605A",
"D. c #74645A",
"F. c #455D64",
"G. c #4A5C63",
"H. c #455561",
"J. c #525B61",
"K. c #446364",
"L. c #4B6564",
"P. c #4D616B",
"I. c #4A6C6C",
"U. c #45676A",
"Y. c #556668",
"T. c #5A656C",
"R. c #546667",
"E. c #5D716E",
"W. c #486B72",
"Q. c #5B6D73",
"!. c #5B7470",
"~. c #587A76",
"^. c #4C737B",
"/. c #616166",
"(. c #626C6C",
"). c #6C696A",
"_. c #746B68",
"`. c #65747A",
"'. c #77787C",
"]. c #686972",
"[. c #80705D",
"{. c #836E60",
"}. c #837365",
"|. c #937F75",
" X c #59847B",
".X c #6B807F",
"XX c #978678",
"oX c #667B81",
"OX c #5F8A8F",
"+X c #69838A",
"@X c #618E8F",
"#X c #798788",
"$X c #68938C",
"%X c #73958C",
"&X c #628B92",
"*X c #738E96",
"=X c #6A9695",
"-X c #78969C",
";X c #7DA89D",
":X c #799DA3",
">X c #7AACAB",
",X c #79A9A2",
"<X c #899D9B",
"1X c #A69487",
"2X c #AF9E92",
"3X c #84A69D",
"4X c #B8A796",
"5X c #89B4AC",
"6X c #80ADB2",
"7X c #89B9B8",
"8X c #92ADAE",
"9X c #C0AE9A",
"0X c #8FC3BD",
"qX c #98CACB",
/* pixels */
"V =.f.i.G 5 5 5 + S n.L.7.K 1 1 m 3.I.K.J 6 6 + + J k.W.y.D 9 6 ",
"V =.p.i.Z 5 7 7 6 S d.F.4.K j 1 k 8.K.n.K 6 j 9 8 P g.U.u.D 9 4 ",
"V -.t.,.v 5 e e 9 S i.f.3.J j 1 k U n.h.n 7 G F A =.f.f.5.D z 4 ",
"V H :.=.e 7 e r 9 D 6.y.=.V j j k U r.0.Z 7 S ;.U :.y.y.=.I ;.;.",
"B B -.G e 5 Z Z Z D :.,.Y H c l c P 5.,.C 9 G ;.} =.,.,.I ,.G.oX",
"8 B Z Z e 5 e Z B B -.=.u.s.s.u.=.Y -.-.z 9 G } F F I -.A :.G.oX",
"8 8 Z Z e e r Z B B C 1.oX&X,X&Xl.1.-.C 8 7 9 e 9 9 B 9 l Z ;.>.",
"B B Z G 5 5 e Z C C l 1.OX7XqX>Xl.u.V C 8 8 7 7 7 6 6 8 7 6 e e ",
"Z G G Z 9 7 e Z V l l 1.OX7XqX>Xl.H V c z 9 5 5 7 7 5 6 5 6 5 6 ",
"-.G G Z 7 5 9 Z =.=.H e.@X7XqX>Xl.Y 2.:.V 9 6 5 5 q 7 6 6 5 5 5 ",
"F F G G e 5 4 A f.g.a.z.$X0XqX,Xz.e.U.z.U 7 7 5 q 5 7 6 7 7 6 7 ",
"F D G e q 7 v :.K.I.a.g.$X>X0X;Xj.e.I.I.7.A 9 7 5 5 5 5 7 7 6 5 ",
"F Z v 5 5 v 6.m.L.n.L 8. X;X0X$Xw.Y w.h.F.0.n o O 5 5 7 9 7 8 o ",
"F G v 7 o S m.!.E.g.m L  X;X5X%X4.m L r.Y.G.) O 5 7 5 e ;.D B 6 ",
"F S Z e o n R.oX.XL.N M !.3X5X%X4.k L r.Y.G._ q q q 5 G H.H.,.Z ",
"F F G 9 o S T.#X#XR.N M !.3X8X%X4.k M 9.Y.J.| q r e 5 F H.G.,.A ",
"F G v 5 o ) T.#X#XR.N M E.3X8X%X9.k  .q.T.J. .q q q 5 e } } Z 9 ",
"S n 7 O o E J.'.<X/...E m..XXXE.X.M 9.B./.M.| q q r 7 5 6 9 6 8 ",
"S b q O O y x.T._.).9...^ ..X...E ..N.)./.B._ w b q q 5 5 8 9 9 ",
") b q O # w ~ x._._.b.$.2 . . 2 ^ c.).).N.X.( b T r w q 7 Z ;.6.",
"[ ( r $ # @ $ ^ V.D.D.V.+.2 = 3 &.Z._.D.$.W y y i i i e 9 ;.P.oX",
"[ ( w $ @ X   < +.V.{.{.A.C.*.C.D.}.D.&.3 ; > y t i / / Z t.oX6X",
"] ( 0 $ @ - = = < +.{.1X4X4X4X4X4XXXv.3 ; . > y i i ( / Z i.*X8X",
"] p t $ @ : ; * * ! C.|.2X4X4X2X1X}.+., ; > > > t i ( / Z ,.oX:X",
"' R t $ $ @ @ - - < ^ %.v.v.v.c.x.$.W > W W T w i i ( ) S P 5.y.",
"] ( y $ $ $ $ : : : : : y y y $ > : $ t y W % b w r T _ >.>.P z ",
"{ ! y : $ $ t u a t : t u i w $ $ 0 $ $ # % % # $ $ $ | Q.Q.i.I ",
"#.! a : : u u u p a : t R T w 0 0 0 0 $ # # # # $ $ $ [ T.oXW.K.",
"@.O.h h s f s a s a : t W W y $ 0 y i u : $ $ : a p a ( <.G.+X:X",
"@.O.d < d g s s s a : : p R y % % y Q R : $ : : f f p ( ;.B.oX:X",
"@.o.d s g ! s s s a - : Q ' W $ % y Q Q u > u p f f a { J.T.G.H.",
"O.o.d s g ! g s s h : > Q ~ y > % > Q ~ W u u R ! f h <.].].i.=."
};
