/* XPM */
static char *result[] = {
/* columns rows colors chars-per-pixel */
"32 32 69 1 ",
"  c #0E122F",
". c #12122E",
"X c #0F1531",
"o c #0E1A34",
"O c #0D1739",
"+ c #131532",
"@ c #141A35",
"# c #191B37",
"$ c #151D3A",
"% c #1A1E3B",
"& c #15203C",
"* c #1C223D",
"= c #22243F",
"- c #1D2542",
"; c #1E2A45",
": c #1F294B",
"> c #212642",
", c #242A45",
"< c #292D47",
"1 c #232748",
"2 c #252C4A",
"3 c #2A2E4B",
"4 c #26314C",
"5 c #2B324D",
"6 c #31344E",
"7 c #292F51",
"8 c #2D3453",
"9 c #2E3854",
"0 c #2F3658",
"q c #313654",
"w c #333A55",
"e c #393B56",
"r c #313559",
"t c #353D5B",
"y c #393E5C",
"u c #3A3E62",
"i c #36415C",
"p c #3B425E",
"a c #374466",
"s c #3C4462",
"d c #3E4965",
"f c #3D4468",
"g c #3D486A",
"h c #41435E",
"j c #414663",
"k c #434A66",
"l c #494966",
"z c #41456B",
"x c #444C6A",
"c c #4A4E6C",
"v c #46516C",
"b c #4A526E",
"n c #454F71",
"m c #4A4E74",
"M c #475171",
"N c #4C5472",
"B c #4D5873",
"V c #4D577A",
"C c #515674",
"Z c #545A75",
"A c #545B7B",
"S c #595F7A",
"D c #59627D",
"F c #566181",
"G c #5B6384",
"H c #5D6887",
"J c #5E6988",
"K c #606788",
"L c #616A89",
/* pixels */
"O:gGHGJJJDi;44taassfuzzmKKKGGx:o",
":0nVFFFFDBii4iiaasffuzzmGGFFAx9;",
"gnnMMMBBvvddiiiiszfuuzzzmFmmBvxd",
"VMngggggddBBdiiisufzuzzzzzuzxvBB",
"MnzsssapiddvvdaittsfffuzfusdgvbB",
"nxgsssiiidddvvai0ruuuuuuuuttpsdd",
"zzffdssipiddvvi9270rurrrr708iiii",
"yuddssssdippddi4-:7000rrrr8854<<",
"tyuzssspsdppii4&&&18uuuuuytq1---",
"8rysussjspdpi4;&$&20fxcmmzzy1*#$",
"13ryysjsdipii;&&$-0smAAAAACl5*$ ",
"%13rysssidiii4;&-7ulNCVAACCcp5&X",
"#%13ryuyiiii44*;7igMxkzlxlxcbh<&",
"+#O16ree9i9i4,;4tgMvfsdffyslNcy5",
"+++%13679554=;iidvvdssjzsupjlcbb",
"++.#3qeyii4*&*4ivvgiysjjjjspjlbN",
"+..=elNZDvi*oo;idkdppsppsjkjjyyr",
"#+=6lCZSDBp4&o&4ippdsppjpyyuyq<1",
"#=ehlbcbvvbp4&&&49pdhspppyq872%@",
"+=hccljjhkBvi5;*49wieppyyq<<q71*",
".=ellhhshkvbvdsi95445wwq7<-3jzku",
".=ehhhjpppdkbbBvd9<;,<<55518cCCC",
".#<eppkhpppdvbBNvp9<**=5yjpjmCNN",
"+==6ephkppppgxcbvki5&&,wlbbbccxm",
"6<=3eehhpppppjkkkpii==6hbZZNksss",
"he<=6hhlspspppppdii===ilbCBbdsau",
"Zl<=qyuhjsssspspi====ikblkkssssa",
"Sl<=6yujpjsjspywi=@@=ilbhpipsgss",
"he=*3epjssspiii4*#@@=<ihhppsgaaa",
"6<**,qppssyrw6=*@@XX&=6pssppsgsa",
"==*@;5ypstq5,-#@o..X@=6iskpaagga",
"=*@**5epyt81-$@X  .X@*<ipsiadgga"
};
