/* XPM */
static char *_45ca93f2c7f4f64e6569de2ea343a74PFZTz7Rqxv8rc4VZ[] = {
/* columns rows colors chars-per-pixel */
"16 16 241 2 ",
"   c #111B3D",
".  c #525C7E",
"X  c #5B6686",
"o  c #5E6987",
"O  c #5E6985",
"+  c #28334E",
"@  c #262F4C",
"#  c #3A4362",
"$  c #3B4364",
"%  c #3E4367",
"&  c #3D4167",
"*  c #43476D",
"=  c #62678B",
"-  c #5D6585",
";  c #535E7B",
":  c #111E38",
">  c #4D577A",
",  c #434D6F",
"<  c #3E4868",
"1  c #45506D",
"2  c #3E4964",
"3  c #4B5671",
"4  c #39435F",
"5  c #323B5A",
"6  c #3F4668",
"7  c #3D4166",
"8  c #41456B",
"9  c #464B6F",
"0  c #444B6C",
"q  c #454F6B",
"w  c #4F5B75",
"e  c #474F71",
"r  c #3C4465",
"t  c #3B4464",
"y  c #36405D",
"u  c #38435E",
"i  c #414C67",
"p  c #4B5571",
"a  c #3A4361",
"s  c #313859",
"d  c #3D4366",
"f  c #40446A",
"g  c #3E4268",
"h  c #3C4065",
"j  c #3A4061",
"k  c #404967",
"l  c #48536C",
"z  c #3C4264",
"x  c #3F4566",
"c  c #3D4564",
"v  c #3A4360",
"b  c #3A4460",
"n  c #47526D",
"m  c #2E3855",
"M  c #1E2646",
"N  c #303659",
"B  c #2E3357",
"V  c #2D3055",
"C  c #2C3053",
"Z  c #292F50",
"A  c #323957",
"S  c #2C3650",
"D  c #333759",
"F  c #404566",
"G  c #3B4261",
"H  c #3D4662",
"J  c #3B4661",
"K  c #3A4560",
"L  c #353F5B",
"P  c #1B2541",
"I  c #101837",
"U  c #282E50",
"Y  c #3E4366",
"T  c #414568",
"R  c #393F5E",
"E  c #19203D",
"W  c #1A223C",
"Q  c #1F2243",
"!  c #343959",
"~  c #3C4160",
"^  c #3D4462",
"/  c #3C4661",
"(  c #2A3550",
")  c #131E3A",
"_  c #16203D",
"`  c #394160",
"'  c #575D7E",
"]  c #5A6081",
"[  c #5A5F80",
"{  c #545978",
"}  c #252B48",
"|  c #0D142F",
" . c #151736",
".. c #1F2242",
"X. c #383B5A",
"o. c #3B425E",
"O. c #333C57",
"+. c #333D58",
"@. c #29344F",
"#. c #1A2540",
"$. c #37425E",
"%. c #4E5875",
"&. c #3A4261",
"*. c #3E4465",
"=. c #3E4261",
"-. c #404564",
";. c #575C79",
":. c #202742",
">. c #121231",
",. c #121331",
"<. c #282B49",
"1. c #292F4C",
"2. c #2D3550",
"3. c #252F4A",
"4. c #17223D",
"5. c #35405B",
"6. c #4A5570",
"7. c #3B4461",
"8. c #434968",
"9. c #3E4362",
"0. c #3B405F",
"q. c #444966",
"w. c #171634",
"e. c #151633",
"r. c #4F526F",
"t. c #5D637E",
"y. c #5C647F",
"u. c #28314C",
"i. c #05102B",
"p. c #26314C",
"a. c #414B67",
"s. c #3C4260",
"d. c #3B415F",
"f. c #3D4260",
"g. c #424765",
"h. c #3C415F",
"j. c #2A2F4D",
"k. c #191835",
"l. c #4E4F6B",
"z. c #4C4D6A",
"x. c #424663",
"c. c #454D69",
"v. c #505975",
"b. c #0A1530",
"n. c #3E4763",
"m. c #3D4460",
"M. c #3D425F",
"N. c #393E5C",
"B. c #292E4C",
"V. c #282D4C",
"C. c #0F1433",
"Z. c #161632",
"A. c #454561",
"S. c #424461",
"D. c #3E4360",
"F. c #444D69",
"G. c #4B5570",
"H. c #49546F",
"J. c #313A55",
"K. c #1E2641",
"L. c #2B324D",
"P. c #2F3451",
"I. c #252A47",
"U. c #1C2140",
"Y. c #525776",
"T. c #4C5171",
"R. c #11112E",
"E. c #30314D",
"W. c #3B3E5A",
"Q. c #434764",
"!. c #3B415E",
"~. c #39415D",
"^. c #47506C",
"/. c #4E5774",
"(. c #48516C",
"). c #2F3651",
"_. c #121933",
"`. c #242A45",
"'. c #484E69",
"]. c #454B68",
"[. c #4E5473",
"{. c #4C5373",
"}. c #383A55",
"|. c #222541",
" X c #393D59",
".X c #404662",
"XX c #3C4360",
"oX c #3A425F",
"OX c #3A415E",
"+X c #3B425F",
"@X c #444C68",
"#X c #333A54",
"$X c #1A203A",
"%X c #3D435D",
"&X c #565C76",
"*X c #525977",
"=X c #373F60",
"-X c #5D607A",
";X c #191E38",
":X c #373C58",
">X c #3E4562",
",X c #3E4462",
"<X c #3C4361",
"1X c #3C435F",
"2X c #2A304C",
"3X c #141A34",
"4X c #2C324C",
"5X c #525973",
"6X c #3B425D",
"7X c #3D4665",
"8X c #3C4667",
"9X c #363B53",
"0X c #171D36",
"qX c #3F4662",
"wX c #3C4261",
"eX c #353B5A",
"rX c #282D4B",
"tX c #191E3A",
"yX c #10142F",
"uX c #1E233D",
"iX c #3B415B",
"pX c #3F4661",
"aX c #3D4767",
"sX c #374465",
"dX c #21273F",
"fX c #141A33",
"gX c #242B46",
"hX c #3A415D",
"jX c #39405E",
"kX c #282E4E",
"lX c #1B2140",
"zX c #111634",
"xX c #0D122E",
"cX c #0F132F",
"vX c #171C36",
"bX c #303651",
"nX c #424965",
"mX c #37405E",
"MX c #3D4868",
"NX c #394668",
"BX c white",
/* pixels */
"  . X o O + @ # $ % & * = - ; : ",
"> , < 1 2 3 4 5 6 % 7 8 9 0 q w ",
"e r t y u i p a s d f g h j k l ",
"z x c v b u n m M N B V C Z A S ",
"D F G H J K L P I U Y T F R E W ",
"Q ! ~ ^ / K ( ) _ ` ' ] [ { } | ",
" ...X.o.O.+.@.#.$.%.&.*.=.-.;.:.",
">.,.<.1.2.3.4.5.6.7.G 8.9.0.q.;.",
"w.e.r.t.y.u.i.p.a.7.s.d.f.g.h.j.",
"k.l.z.x.c.v.3.b.p.n.m.M.N.B.V.C.",
"Z.A.S.D.o.F.G.H.J.K.L.P.I.U.Y.T.",
"R.E.W.Q.!.~.^./.(.)._.`.'.].[.{.",
"}.|. X.XXXoXOX+X@X#X$X%X&X*X` =X",
"-X;X:Xm.>X,X<X1X2X3X4X5X6XoX7X8X",
"9X0X).qX<XwXeXrXtXyXuXiXpXoXaXsX",
"dXfXgXhXjXkXlXzXxXcXvXbXnXmXMXNX"
};
