/* XPM */
static char *result[] = {
/* columns rows colors chars-per-pixel */
"32 32 116 2 ",
"   c #010102",
".  c #05050A",
"X  c #0B0B0C",
"o  c #0C0D13",
"O  c #0F1016",
"+  c #0F111B",
"@  c #121314",
"#  c #15161D",
"$  c #1B1B1E",
"%  c #141620",
"&  c #171922",
"*  c #1B1D22",
"=  c #1D1F2A",
"-  c #1F2025",
";  c #1E212B",
":  c #202226",
">  c #24262C",
",  c #292A2F",
"<  c #242632",
"1  c #262A32",
"2  c #2A2C33",
"3  c #2D2F3B",
"4  c #2E313C",
"5  c #333436",
"6  c #33343B",
"7  c #363A3D",
"8  c #383B3D",
"9  c #2D3142",
"0  c #333541",
"q  c #353944",
"w  c #3B3D43",
"e  c #333749",
"r  c #3C3F4A",
"t  c #383D50",
"y  c #3F4246",
"u  c #3E414E",
"i  c #3D4152",
"p  c #43444C",
"a  c #45484C",
"s  c #424553",
"d  c #474B55",
"f  c #4C4D55",
"g  c #44495B",
"h  c #4C4F5B",
"j  c #4F5154",
"k  c #4C505C",
"l  c #515256",
"z  c #52535B",
"x  c #58595F",
"c  c #525663",
"v  c #565964",
"b  c #5A5B62",
"n  c #525769",
"m  c #575B6D",
"M  c #595D6B",
"N  c #5F6065",
"B  c #5D616C",
"V  c #606166",
"C  c #62646B",
"Z  c #65686E",
"A  c #616570",
"S  c #666A75",
"D  c #6A6A71",
"F  c #676A7A",
"G  c #696E7B",
"H  c #6E737D",
"J  c #72747B",
"K  c #6D7283",
"L  c #727583",
"P  c #767983",
"I  c #7A7C84",
"U  c #7B7F89",
"Y  c #7D818A",
"T  c #7E8392",
"R  c #808187",
"E  c #83848B",
"W  c #88898D",
"Q  c #828692",
"!  c #858993",
"~  c #8A8C92",
"^  c #838899",
"/  c #8B8D9A",
"(  c #8D939C",
")  c #919397",
"_  c #939599",
"`  c #94989C",
"'  c #8F94A2",
"]  c #9195A1",
"[  c #979AA5",
"{  c #9B9DA4",
"}  c #969AAA",
"|  c #9A9EA9",
" . c #9FA3AE",
".. c #A1A1A6",
"X. c #A3A5AC",
"o. c #A5A9AE",
"O. c #A7A9B2",
"+. c #AAACB4",
"@. c #ACAFBA",
"#. c #AFB2BD",
"$. c #B2B5BD",
"%. c #B3B7C4",
"&. c #B6BAC6",
"*. c #BABBC3",
"=. c #BBBEC9",
"-. c #BFC0C6",
";. c #C2C4CC",
":. c #C0C4D1",
">. c #C4C8D2",
",. c #CACDD6",
"<. c #C8CCD9",
"1. c #CED0DB",
"2. c #D1D5E0",
"3. c #D9DCE5",
"4. c #DDDFE9",
"5. c None",
/* pixels */
"5.5.5.5.5.5.5.5.5.5.5.5.5.5.5.5.5.5.5.5.5.5.5.5.5.5.5.5.5.5.5.5.",
"5.5.5.5.5.5.5.5.5.5.5.5.5.5.5.5.5.5.5.5.5.5.5.5.5.5.5.5.5.5.5.5.",
"5.5.5.5.5.5.5.5.5.5.5.5.E W ) ` ) _ ` ~ J Z 5.5.5.5.5.5.5.5.5.5.",
"5.5.5.5.5.5.5.5.5.5.5.5._ { X.o.o.o.o.{ ! I 5.5.5.5.5.5.5.5.5.5.",
"5.5.5.5.5.5.5.5.5.5.V Y +.;.,.,.1.,.>.=.@./ h 2 5.5.5.5.5.5.5.5.",
"5.5.5.5.5.5.5.5.5.5.C R *.3.3.2.,.:.=.%.%./ f 2 5.5.5.5.5.5.5.5.",
"5.5.5.5.5.5.5.5.5.5.C E ;.4.1.&.} ^ Q T ^ L r < 5.5.5.5.5.5.5.5.",
"5.5.5.5.5.5.5.5.5.5.x J O.=.@.' K m n m F m 0 = 5.5.5.5.5.5.5.5.",
"5.5.5.5.5.5.5.5.5.5.p l H Y P F m i i i k i 1 & 5.5.5.5.5.5.5.5.",
"5.5.5.5.5.5.5.5.5.5.7 y k B B B n g e 9 q 4 ; + 5.5.5.5.5.5.5.5.",
"5.5.5.5.5.5.5.5.5.5.8 y j b H K K m i 4 1 ; 5.5.5.5.5.5.5.5.5.5.",
"5.5.5.5.5.5.5.5.5.5.8 a B P ! ! L B i 4 ; & 5.5.5.5.5.5.5.5.5.5.",
"5.5.5.5.5.5.5.5.5.5.5 l W +.O.' G k i 9 1 ; 5.5.5.5.5.5.5.5.5.5.",
"5.5.5.5.5.5.5.5.5.5.> a E X.{ W A n B b k a 5.5.5.5.5.5.5.5.5.5.",
"5.5.5.5.5.5.5.5.5.5.O > l C C B B H (  .( H p , 5.5.5.5.5.5.5.5.",
"5.5.5.5.5.5.5.5.5.5.. # 6 j b B S P  .O. .Y d 3 5.5.5.5.5.5.5.5.",
"5.5.5.5.5.5.5.5.5.5.o $ 6 x R / Y J Y Y ^ L j q 5.5.5.5.5.5.5.5.",
"5.5.5.5.5.5.5.5.5.5., 6 l I X.O.T Y ! ~ T G d q 5.5.5.5.5.5.5.5.",
"5.5.5.5.5.5.5.5.J Z f b R X.*.@.Y Y $.-.' S u 4 5.5.5.5.5.5.5.5.",
"5.5.5.5.5.5.5.5.D C z D / @.=.+.Y Y #.#.E B u 3 5.5.5.5.5.5.5.5.",
"5.5.5.5.5.5.5.5.b z a l L [ %. .G N I I N j 5.5.5.5.5.5.5.5.5.5.",
"5.5.5.5.5.5.5.5.z a 6 0 M U ..} H v j j a y 5.5.5.5.5.5.5.5.5.5.",
"5.5.5.5.5.5.5.5.5.5.# = q B / [ ! B y 1 5.5.5.5.5.5.5.5.5.5.5.5.",
"5.5.5.5.5.5.5.5.5.5.o # > p H / [ Y y $ 5.5.5.5.5.5.5.5.5.5.5.5.",
"5.5.5.5.5.5.5.5.5.5.5.5.# 2 f I O.` z 3 5.5.5.5.5.5.5.5.5.5.5.5.",
"5.5.5.5.5.5.5.5.5.5.5.5.o : p I $.+.B 6 5.5.5.5.5.5.5.5.5.5.5.5.",
"5.5.5.5.5.5.5.5.      . O 1 z ~ ;.$.V 2 O       5.5.5.5.5.5.5.5.",
"5.5.5.5.5.5.5.5.      . O 2 z I ..) j - X       5.5.5.5.5.5.5.5.",
"5.5.5.5.5.5.5.5.5.5.  . X : w z N l , @ .   5.5.5.5.5.5.5.5.5.5.",
"5.5.5.5.5.5.5.5.5.5.    X $ 5 8 8 5 $ X     5.5.5.5.5.5.5.5.5.5.",
"5.5.5.5.5.5.5.5.5.5.5.5.5.5.5.5.5.5.5.5.5.5.5.5.5.5.5.5.5.5.5.5.",
"5.5.5.5.5.5.5.5.5.5.5.5.5.5.5.5.5.5.5.5.5.5.5.5.5.5.5.5.5.5.5.5."
};
