/* XPM */
static char *_ac10421b89946ffb1ab9f0b4c2feb52WI5Jbb3sHDeNeCnm[] = {
/* columns rows colors chars-per-pixel */
"16 16 90 1 ",
"  c None",
". c black",
"X c #010101",
"o c #000003",
"O c #010103",
"+ c #000004",
"@ c #07080D",
"# c #0B0C15",
"$ c #0E0F18",
"% c #121213",
"& c #111015",
"* c #14141A",
"= c #11131D",
"- c #17161D",
"; c #151922",
": c #1A1C20",
"> c #262633",
", c #292D34",
"< c #292E35",
"1 c #2B2E39",
"2 c #2F2F3A",
"3 c #343638",
"4 c #33343E",
"5 c #37383B",
"6 c #3A393D",
"7 c #383B3F",
"8 c #3A3D3E",
"9 c #292E41",
"0 c #363846",
"q c #393B46",
"w c #3B3F4B",
"e c #3E4046",
"r c #3C404B",
"t c #414144",
"y c #45464A",
"u c #48494F",
"i c #434754",
"p c #494950",
"a c #484B53",
"s c #43475A",
"d c #4C505D",
"f c #4F525D",
"g c #505159",
"h c #53545A",
"j c #54575E",
"k c #57575F",
"l c #5A5E6C",
"z c #5F626B",
"x c #5F6476",
"c c #64656A",
"v c #63666E",
"b c #66676D",
"n c #666A74",
"m c #686B71",
"M c #6E6F77",
"N c #6C6F79",
"B c #707077",
"V c #76757C",
"C c #6A6F81",
"Z c #707686",
"A c #787B82",
"S c #797B89",
"D c #797D8B",
"F c #7A7C8C",
"G c #7A808D",
"H c #7C808D",
"J c #86878B",
"K c #878C95",
"L c #919498",
"P c #969A9F",
"I c #989A9E",
"U c #9599A4",
"Y c #9DA3AB",
"T c #ACAEB5",
"R c #ACADB7",
"E c #ACB0BA",
"W c #B2B5C2",
"Q c #B6B8C4",
"! c #BABCC3",
"~ c #B8BBC9",
"^ c #BBC0CA",
"/ c #BEC1C8",
"( c #C4C6CF",
") c #CCD0DC",
"_ c #D2D3D7",
"` c #D1D2DA",
"' c #DBDEE8",
"] c #DFE1EB",
"[ c #DDE1EC",
"{ c #DFE4ED",
/* pixels */
"                ",
"      JILPm     ",
"     c`'[)Q2    ",
"     b]~CxF>    ",
"     7zls9i=    ",
"     8jHZ0;     ",
"     3!Edw<     ",
"     @uan^Y<    ",
"     *pTANGr    ",
"    BkR(M{D1    ",
"    h4SWdby     ",
"     #qUK:      ",
"      &g(q      ",
"    ++;V_7..    ",
"     .&7t%.     ",
"                "
};
