/* XPM */
static char *result[] = {
/* columns rows colors chars-per-pixel */
"32 32 139 2 ",
"   c #010103",
".  c #040409",
"X  c #07080C",
"o  c #0C0D14",
"O  c #0B0E1B",
"+  c #0F1117",
"@  c #0E111B",
"#  c #111116",
"$  c #17171C",
"%  c #18191D",
"&  c #151823",
"*  c #1A1B21",
"=  c #1D1E28",
"-  c #222326",
";  c #23232C",
":  c #28272C",
">  c #2B2B2F",
",  c #232633",
"<  c #282731",
"1  c #262934",
"2  c #2A2B33",
"3  c #292D38",
"4  c #302F3B",
"5  c #2F3036",
"6  c #2E323A",
"7  c #323236",
"8  c #32343C",
"9  c #36393C",
"0  c #393B3F",
"q  c #343643",
"w  c #363944",
"e  c #3C3D44",
"r  c #3C3D49",
"t  c #3D4046",
"y  c #3F414E",
"u  c #3F4355",
"i  c #424347",
"p  c #43444B",
"a  c #4A4A4D",
"s  c #444551",
"d  c #464950",
"f  c #4C4E55",
"g  c #42465B",
"h  c #474A5D",
"j  c #4A4D5A",
"k  c #4D515A",
"l  c #515356",
"z  c #54565C",
"x  c #59595C",
"c  c #474C62",
"v  c #4E5266",
"b  c #4F5368",
"n  c #535561",
"m  c #575960",
"M  c #5C5D65",
"N  c #52566B",
"B  c #5B5E6A",
"V  c #555B72",
"C  c #595D70",
"Z  c #5E606A",
"A  c #5C637A",
"S  c #63656B",
"D  c #65686E",
"F  c #686A6E",
"G  c #636573",
"H  c #676B74",
"J  c #6B6C74",
"K  c #62677E",
"L  c #656B7A",
"P  c #6C6F7A",
"I  c #6E717C",
"U  c #717175",
"Y  c #73747C",
"T  c #74787E",
"R  c #79797E",
"E  c #656B81",
"W  c #6A6F81",
"Q  c #6B7284",
"!  c #727684",
"~  c #747883",
"^  c #7A7C85",
"/  c #767A8E",
"(  c #797E8B",
")  c #7A7F92",
"_  c #7E8286",
"`  c #7E828D",
"'  c #7C8293",
"]  c #81848B",
"[  c #84898C",
"{  c #89888B",
"}  c #858794",
"|  c #858A92",
" . c #8A8C94",
".. c #838998",
"X. c #8B8E99",
"o. c #8E9196",
"O. c #8E9298",
"+. c #92959B",
"@. c #959A9E",
"#. c #999B9E",
"$. c #8A90A2",
"%. c #9496A3",
"&. c #979AA1",
"*. c #9A9EA3",
"=. c #939AA8",
"-. c #9A9DAB",
";. c #9DA2A6",
":. c #9FA1AB",
">. c #9EA3B2",
",. c #A1A1A7",
"<. c #A3A6AD",
"1. c #A8ABAE",
"2. c #A2A6B3",
"3. c #A7ACB6",
"4. c #AAACB5",
"5. c #A7ADBB",
"6. c #AAADBA",
"7. c #AFB3BC",
"8. c #B1B1B6",
"9. c #B2B4BC",
"0. c #AFB5C1",
"q. c #B6B9C4",
"w. c #BABCC4",
"e. c #B4BBC8",
"r. c #B8BCC9",
"t. c #BCC1CA",
"y. c #C0C4CD",
"u. c #C5C9CE",
"i. c #C4CAD4",
"p. c #C9CCD2",
"a. c #CDD2DB",
"s. c #D1D6DC",
"d. c #D4DADE",
"f. c #D3D7E0",
"g. c #D5DAE4",
"h. c #DADEE8",
"j. c #DCE2EA",
"k. c #E0E6ED",
"l. c None",
/* pixels */
"l.l.l.l.l.l.l.l.l.l.l.l.l.l.l.l.l.l.l.l.l.l.l.l.l.l.l.l.l.l.l.l.",
"l.l.l.l.l.l.l.l.l.l.l.l.l.l.l.l.l.l.l.l.l.l.l.l.l.l.l.l.l.l.l.l.",
"l.l.l.l.l.l.l.l.9 d H _ _ _ [ [ [ _ Y F l.l.l.l.l.l.l.l.l.l.l.l.",
"l.l.l.l.l.l.l.l.f Z ` %.;.;.;.;.;.@.{ ] l.l.l.l.l.l.l.l.l.l.l.l.",
"l.l.l.l.l.l.l.l.^  .7.t.i.a.g.j.i.t.q.:.U z l.l.l.l.l.l.l.l.l.l.",
"l.l.l.l.l.l.l.l.| :.q.i.a.j.j.k.j.g.f.9.Y z l.l.l.l.l.l.l.l.l.l.",
"l.l.l.l.l.l.. 7 Y %.=.>.>.5.e.t.d.j.h.q.^ m l.l.l.l.l.l.l.l.l.l.",
"l.l.l.l.l.l.. ; Z ` ' ' / ' $.>.r.a.a.7.Y z l.l.l.l.l.l.l.l.l.l.",
"l.l.l.l.l.l.. * f G G C b V E ' ;.3.7.;.F l l.l.l.l.l.l.l.l.l.l.",
"l.l.l.l.l.l.. * r j j h u c V E ' | ' _ z p l.l.l.l.l.l.l.l.l.l.",
"l.l.l.l.l.l.l.l.q w r u v V A E L A z y t 9 l.l.l.l.l.l.l.l.l.l.",
"l.l.l.l.l.l.l.l.6 3 , q b E E Q _ T k t 9 9 l.l.l.l.l.l.l.l.l.l.",
"l.l.l.l.l.l.l.l.l.l.O , v W Q ' :.>._ Z l t l.l.l.l.l.l.l.l.l.l.",
"l.l.l.l.l.l.l.l.l.l.1 w B W Q ..0.t.<._ l 0 l.l.l.l.l.l.l.l.l.l.",
"l.l.l.l.l.l.l.l.q d G I L H L ` 3.t.9.[ i - l.l.l.l.l.l.l.l.l.l.",
"l.l.l.l.l.l.l.l.f S O.&.` I H ~ o.@.o.F 2 + l.l.l.l.l.l.l.l.l.l.",
"l.l.l.l.l.l.= y I +.4.4.O._ ~ J Z f t > # . l.l.l.l.l.l.l.l.l.l.",
"l.l.l.l.l.l.; p ^ :.4.2.+.[ _ Y D l 5 % o o l.l.l.l.l.l.l.l.l.l.",
"l.l.l.l.l.l.4 s P X.O.O.| [ { +.1.#.S t : ; : > l.l.l.l.l.l.l.l.",
"l.l.l.l.l.l.4 s H ] +.;.&.o.] #.p.u.o.Z a e i i l.l.l.l.l.l.l.l.",
"l.l.l.l.l.l.3 e B } 9.u.y.<.R ] u.s.<.^ S M U R l.l.l.l.l.l.l.l.",
"l.l.l.l.l.l.< q k Y ,.0.9.%.J ^ t.a.2.( B M R { l.l.l.l.l.l.l.l.",
"l.l.l.l.l.l.l.l.e s S P J G L } t.e.O.Z y y M U l.l.l.l.l.l.l.l.",
"l.l.l.l.l.l.l.l.1 7 p s y v ^ %.3.:.Q j 1 , 0 a l.l.l.l.l.l.l.l.",
"l.l.l.l.l.l.l.l.l.l.l.l.p B %.4.-.` Z w & o % % l.l.l.l.l.l.l.l.",
"l.l.l.l.l.l.l.l.l.l.l.l.n P 2.6.( B u 3 O . . X l.l.l.l.l.l.l.l.",
"l.l.l.l.l.l.l.l.l.l.l.l.( O.7.:.Z q 1 = l.l.l.l.l.l.l.l.l.l.l.l.",
"l.l.l.l.l.l.l.l.l.l.l.l. .<.w.:.M 3 * # l.l.l.l.l.l.l.l.l.l.l.l.",
"l.l.l.l.l.l.l.l.      7 { 8.p.8.P e % X .   l.l.l.l.l.l.l.l.l.l.",
"l.l.l.l.l.l.l.l.      - F ,.8.,.U p % .     l.l.l.l.l.l.l.l.l.l.",
"l.l.l.l.l.l.l.l.      % p F U U M e % . .       l.l.l.l.l.l.l.l.",
"l.l.l.l.l.l.l.l.      # 7 a x x l 0 % . .       l.l.l.l.l.l.l.l."
};
