/* XPM */
static char *d39f0aacaed0454dd8dcec1eedc37a52oC73G6YnRcmR2CEX[] = {
/* columns rows colors chars-per-pixel */
"16 16 108 2 ",
"   c None",
".  c #010101",
"X  c #010102",
"o  c #010103",
"O  c #010104",
"+  c #010105",
"@  c #010204",
"#  c #010205",
"$  c #000007",
"%  c #05050A",
"&  c #00020C",
"*  c #08080C",
"=  c #0B0B0F",
"-  c #040714",
";  c #090910",
":  c #121318",
">  c #191B1E",
",  c #151820",
"<  c #23222D",
"1  c #222531",
"2  c #2B2D33",
"3  c #2F2E32",
"4  c #2A2A34",
"5  c #2D2B34",
"6  c #2E2F3A",
"7  c #2D3139",
"8  c #2F323B",
"9  c #313437",
"0  c #373643",
"q  c #323545",
"w  c #383A42",
"e  c #393B43",
"r  c #3B3F55",
"t  c #41454A",
"y  c #46464A",
"u  c #464A4C",
"i  c #404450",
"p  c #434552",
"a  c #454753",
"s  c #4B4B50",
"d  c #4A4E53",
"f  c #4D4E58",
"g  c #57585F",
"h  c #545760",
"j  c #515567",
"k  c #555960",
"l  c #595A62",
"z  c #5E5D62",
"x  c #5F5F62",
"c  c #5C5E65",
"v  c #5E5E69",
"b  c #5B6077",
"n  c #5D647B",
"m  c #626269",
"M  c #636A76",
"N  c #656877",
"B  c #6E6F75",
"V  c #696E78",
"C  c #6C6E78",
"Z  c #74797F",
"A  c #626980",
"S  c #696D80",
"D  c #6A7080",
"F  c #707789",
"G  c #777988",
"H  c #7D7E8B",
"J  c #7D7F8D",
"K  c #7D8187",
"L  c #82878A",
"P  c #83878B",
"I  c #83878C",
"U  c #868B8D",
"Y  c #878B8E",
"T  c #868990",
"R  c #878C94",
"E  c #898F91",
"W  c #8F8E92",
"Q  c #8B8C96",
"!  c #888D9F",
"~  c #8B8E9E",
"^  c #8E9099",
"/  c #8C929E",
"(  c #93949D",
")  c #93979E",
"_  c #9596A1",
"`  c #9C9DA6",
"'  c #A6A6AC",
"]  c #A3A8AE",
"[  c #ABAEB1",
"{  c #A6ADBC",
"}  c #AEB4BD",
"|  c #B5B9BF",
" . c #B9BBC5",
".. c #BBBDCB",
"X. c #C1C7D1",
"o. c #C1C4D3",
"O. c #C8CBD4",
"+. c #CBD0D4",
"@. c #CDD1DD",
"#. c #D3D3D9",
"$. c #D3D7DE",
"%. c #D8DBDC",
"&. c #D3D8E1",
"*. c #D7DBE4",
"=. c #D8DEE8",
"-. c #E4E7ED",
";. c #E1E8EF",
":. c #F0F7FA",
/* pixels */
"                                ",
"        e K L U Y B             ",
"        ( @.;.:.&.O.g           ",
"      ; Q ! ! { =.*.c           ",
"      % h j r n / ] d           ",
"        8 q b A V 8 9           ",
"          - S F X.U u           ",
"        e ) V M  .[ >           ",
"      < `  .E Z e : $           ",
"      0 H T I E %.m 5 3         ",
"      4 V $.O.g ;._ v W         ",
"        2 f a G o.N 1 x         ",
"            a ..J i & *         ",
"            ^  .6 ,             ",
"        o # ' #.l * #           ",
"        o # y x s * # o         "
};
