/* XPM */
static char *result[] = {
/* columns rows colors chars-per-pixel */
"32 32 223 2 ",
"   c #7D2C2C",
".  c #5C5C6C",
"X  c #595965",
"o  c #635C69",
"O  c #5E626F",
"+  c #64616D",
"@  c #6C6C7B",
"#  c #676575",
"$  c #746B7A",
"%  c #6D727C",
"&  c #76727D",
"*  c #991F1C",
"=  c #94241D",
"-  c #9A251D",
";  c #9D2D1D",
":  c #A42916",
">  c #AA321A",
",  c #A5331E",
"<  c #B73E1F",
"1  c #A01F21",
"2  c #832D29",
"3  c #892C2C",
"4  c #8A2825",
"5  c #9C2324",
"6  c #9D2C23",
"7  c #942C2C",
"8  c #972826",
"9  c #9C342C",
"0  c #983526",
"q  c #983735",
"w  c #8B3432",
"e  c #A32424",
"r  c #AA2325",
"t  c #A72B2A",
"y  c #B22B2B",
"u  c #B12F27",
"i  c #A43325",
"p  c #A93123",
"a  c #AE322D",
"s  c #AD3A2C",
"d  c #A7362A",
"f  c #B63F22",
"g  c #B1312C",
"h  c #B33F2D",
"j  c #AD2F30",
"k  c #AD3232",
"l  c #A53834",
"z  c #B83635",
"x  c #C23C38",
"c  c #9A433B",
"v  c #BA4129",
"b  c #A64136",
"n  c #B4443D",
"m  c #BC433C",
"M  c #B94938",
"N  c #A94A36",
"B  c #C8512F",
"V  c #C34234",
"C  c #C34B34",
"Z  c #C24339",
"A  c #C14A39",
"S  c #CA5233",
"D  c #C45238",
"F  c #DA593E",
"G  c #D7573D",
"H  c #894547",
"J  c #974748",
"K  c #9B5251",
"L  c #955053",
"P  c #9B524C",
"I  c #AA4E4B",
"U  c #A94944",
"Y  c #B64C45",
"T  c #A9544D",
"R  c #A95959",
"E  c #B95D56",
"W  c #BA5542",
"Q  c #B6625A",
"!  c #A96057",
"~  c #84747A",
"^  c #9C7179",
"/  c #B56966",
"(  c #BB6663",
")  c #AC797D",
"_  c #B37478",
"`  c #B36E6A",
"'  c #C64844",
"]  c #C64B46",
"[  c #D34E43",
"{  c #CA594B",
"}  c #D55445",
"|  c #D55A45",
" . c #DA5B44",
".. c #D45A4C",
"X. c #D85C4D",
"o. c #D55546",
"O. c #C35D51",
"+. c #D75F52",
"@. c #DC6447",
"#. c #D9654A",
"$. c #CB675A",
"%. c #DB6453",
"&. c #DF6A56",
"*. c #D26A5A",
"=. c #D76957",
"-. c #E66546",
";. c #E3634C",
":. c #E7684E",
">. c #E56552",
",. c #E16954",
"<. c #E86651",
"1. c #C66E66",
"2. c #D36F60",
"3. c #C8746B",
"4. c #C67973",
"5. c #D37E76",
"6. c #CA827C",
"7. c #D4837B",
"8. c #D68276",
"9. c #6D7383",
"0. c #747584",
"q. c #797888",
"w. c #757689",
"e. c #877B87",
"r. c #BA7C80",
"t. c #B37E81",
"y. c #7C8088",
"u. c #86828B",
"i. c #95828A",
"p. c #8D8C9B",
"a. c #898796",
"s. c #988995",
"d. c #98949C",
"f. c #A9898D",
"g. c #B98588",
"h. c #AB8F93",
"j. c #A48992",
"k. c #B7949A",
"l. c #AE919B",
"z. c #8A91A2",
"x. c #9B9BA3",
"c. c #939CAD",
"v. c #9793A3",
"b. c #8D8FA1",
"n. c #A39AA8",
"m. c #BC9CA5",
"M. c #A69FB4",
"N. c #99A0AA",
"B. c #9BA5B4",
"V. c #A6A3A9",
"C. c #A9ABB5",
"Z. c #BAA9B4",
"A. c #B3ABB7",
"S. c #B9B5BB",
"D. c #BFA3AC",
"F. c #CC8E8E",
"G. c #C58589",
"H. c #CD928F",
"J. c #C88E92",
"K. c #CA9497",
"L. c #D29294",
"P. c #DB9D9A",
"I. c #D59799",
"U. c #E19E9D",
"Y. c #DDA59F",
"T. c #E2A69F",
"R. c #CA9EA3",
"E. c #DD9CA1",
"W. c #C9A2A5",
"Q. c #D6A9AC",
"!. c #CAACB5",
"~. c #C5B4BC",
"^. c #DBB4B6",
"/. c #D9AEB2",
"(. c #E3A4A2",
"). c #E7ACA8",
"_. c #EBBABE",
"`. c #E3B5B9",
"'. c #E6B0AC",
"]. c #ABB8C6",
"[. c #A9B5C5",
"{. c #B9BCC3",
"}. c #BAB8C7",
"|. c #C5B9C6",
" X c #DABCC7",
".X c #E7BDC4",
"XX c #F0BFC2",
"oX c #BCC0CE",
"OX c #C7C8CC",
"+X c #C5C4D1",
"@X c #CBC7D8",
"#X c #D7C9D6",
"$X c #DAD5D7",
"%X c #DCD3DA",
"&X c #DDDADC",
"*X c #D7D2D9",
"=X c #D4C1CE",
"-X c #E8C6CA",
";X c #F4CCCB",
":X c #F3C6C9",
">X c #E7CDD4",
",X c #E4D4DA",
"<X c #E4D9DC",
"1X c #EBD4D9",
"2X c #F3D5DB",
"3X c #F5DBDE",
"4X c #F6D8DB",
"5X c #F3CDD1",
"6X c #DDD5E2",
"7X c #D3D6E9",
"8X c #DBDDEA",
"9X c #D5D9E8",
"0X c #EDDCE3",
"qX c #EBDDE8",
"wX c #E5DBE7",
"eX c #F6DCE2",
"rX c #DEE3F2",
"tX c #E4E1E5",
"yX c #EBE4EC",
"uX c #E4E2EC",
"iX c #F4E0E4",
"pX c #F4E1EA",
"aX c #ECE9F4",
/* pixels */
"r y x G ;.<.G x h p - - , V F -.-.F x u r 1 r z ] ..:.@.S v > : ",
"r y x [ ;.<.F V s i - - > v F -.-.F V u 1 5 e k ' X.:.;.S v > : ",
"r y x } <.<.F S s i - - p v F -.-.F V u r 1 1 j ' X.>.@.B < > > ",
"r y x } <.<. .C s 6 = - u V  .-.;. .V g t 1 1 k ' X.%.X.B < > : ",
"r y x o.<.<. .C s i = - g V  .;.;.[ Z g r * e k ] %.&.#.B < : : ",
"r k z o.>.>.o.A s 6 8 5 s Z X.,.;.} z j e 1 5 k ] %.&.#.S v , : ",
"e a m o.,.&.{ A l l 8 8 d m ..&.+...Y k t 5 7 z { =.2.#.M v i ; ",
"5 l n O.=.=.O.Y b q 3 4 q N { =.%.{ n l 7 7 7 l Y O.2.2.W b 0 0 ",
"7 q U E 2.1.E I q w     w U $.$.1.O.U w 3 3 w q I 1.1.$.T N w 2 ",
"U I E ( 7.5.4.( R L H H L E 3.5.5._ R L J H J P / 4.7.6.` ! P c ",
"6.G.J.I.(.(.E.E.I.r.e.^ r.F.E.(.E.E.L.G.r._ ` ) L.(.'.).P.H.g.g.",
").'.`.`./.)./.Q.W.R.j.j.k.R.'.XXXX_./.Q.R.g.g.g.R.Q././.Y.Q.Q.^.",
".X5X5X.XW.l.k.f.j.e.s.s.l.l.!..X5X2X.X!.k.f.f.f.f.f.h.h.h.m. X-X",
"1X2X3X-Xm.i.e.e.e.e.s.s.e.e.l./.1XwX XD.i.i.i.f.i.~ ~ ~ u.V.=X<X",
",X<X0X$XA.s.# o w.e.b.b.e.# ~ e.|.@X}.M.& $ s.d.i.& o + u.C.OXwX",
"%X,XwX<X+Xn.# o w.b.c.b.0.o X 0.M.}.M.e.# + d.V.d.u.X + v.}.@X9X",
"$X&XuXuXrX}.q.# y.B.B.c.9.. + & e.M.e.w.. @ x.C.S.N.% % S.7X7X7X",
"$X&XtXaXaX@Xe.9.B.].oXB.9.O @ q.e.M.w.9.. @ x.oXOXC.% y.oXrX9X7X",
"$X&XuXyXaX|.q.9.B.[.].c.% # u.x.M.M.9.. X @ v.}.oXC.% % oXrX9X9X",
"$X&XwXuXaX@Xa.0.c.[.].N.0.% p.S.@X}.e.9.+ & n.}.OXC.y.y.oX8X9X9X",
"$X&XwXtXyX#Xv.p.[.oX[.B.u.u.x.S.7X7XA.e.e.e.n.|.OXS.p.d.oXtX8X9X",
"&X<XtXiXyX%X}.A.oXoX].B.x.n.!.=XqXqX7X|.M.M.M.}.OXOXC.A.$XtXtX8X",
"1X1X3XiXqX0X,X%XwX#X{.S.S.|.>X3XpXpXqX>X|.!.M.|.$X1X,X,X3XyXtXtX",
"-X>X2X4X3XeXeXeX1X#XS.Z.~.-X4X3XeX2XeX>X X!.!.!.>X3XiX3X4X2X<X,X",
"_._.XXXX:X5X;X;X-X^.D.l.W.^.XX;X5X5XXX.X/.R.k.R._.;X;X;X;X;X`.^.",
"L.I.U.(.).).).(.I.J.t.) g.H.T.).(.(.E.L.G.r._ r.P.T.).).T.Y.H.H.",
"I T 1.1.8.8.5.( ! P H H K / 3.5.5.5.( R K J J R ` 6.8.8.Q ! ! T ",
"8 q n E *.*.O.Y q 2 4 2 w N $.$.$.] U q 7 5 3 q N ( 2.*.W N 0 0 ",
"5 j n { &.&.{ Y l 0 4 4 0 n { %.+...n j 7 5 5 k W $.2.#.B f 0 0 ",
"5 j m o.>.>...M s 6 4 = p M o.;.>.[ m j 5 5 5 k W #.&.#.N < , ; ",
"r j x } >.<.| M s ; = = p M  .<.>.} x k e 5 5 j ' ..#.#.B < , ; ",
"1 y z [ >.>. .C d - * = p V X.<.+.X.x k e 5 5 j ' X.#.@.B < , ; "
};
