/* XPM */
static char *_4671602b00e40929f1266c038c679dbvvUvNbwMgqrharMe[] = {
/* columns rows colors chars-per-pixel */
"16 16 219 2 ",
"   c #752C2D",
".  c #7C2B29",
"X  c #4C4954",
"o  c #534B5E",
"O  c #5C5564",
"+  c #555B62",
"@  c #575965",
"#  c #565C67",
"$  c #595B69",
"%  c #5E5D6F",
"&  c #615E6C",
"*  c #685C6A",
"=  c #5C6270",
"-  c #606074",
";  c #686573",
":  c #8E1C17",
">  c #9F1D1D",
",  c #8C241E",
"<  c #95211A",
"1  c #94221D",
"2  c #9F2E1D",
"3  c #A22814",
"4  c #A52B15",
"5  c #9F1F20",
"6  c #8D2726",
"7  c #9A2224",
"8  c #9F2127",
"9  c #9E2725",
"0  c #9B2F25",
"q  c #9A282A",
"w  c #9E292C",
"e  c #83322D",
"r  c #92392F",
"t  c #842D30",
"y  c #8C2C30",
"u  c #9F2E30",
"i  c #8F3134",
"p  c #8A3535",
"a  c #8A3D3D",
"s  c #953130",
"d  c #A22121",
"f  c #A22427",
"g  c #A32727",
"h  c #A92426",
"j  c #AC2426",
"k  c #AD2627",
"l  c #A9282D",
"z  c #A33025",
"x  c #A53128",
"c  c #A1362B",
"v  c #AB3A2B",
"b  c #B23724",
"n  c #B23826",
"m  c #B8362A",
"M  c #B8372F",
"N  c #B33A2B",
"B  c #A33B35",
"V  c #A93C31",
"C  c #B23934",
"Z  c #B93932",
"A  c #B03D3A",
"S  c #96443F",
"D  c #B14127",
"F  c #BF4723",
"G  c #BE4625",
"H  c #A44D39",
"J  c #A0483E",
"K  c #B44935",
"L  c #C14A2E",
"P  c #CC4E34",
"I  c #C8423B",
"U  c #CB453E",
"Y  c #CD523C",
"T  c #D2553C",
"R  c #A34141",
"E  c #A15144",
"W  c #AD524D",
"Q  c #B5524E",
"!  c #B85C4F",
"~  c #AF5A53",
"^  c #B15D58",
"/  c #BC605B",
"(  c #947D7F",
")  c #B37B7D",
"_  c #C44D47",
"`  c #CC4841",
"'  c #C25343",
"]  c #D1534B",
"[  c #D3564D",
"{  c #DF5D4A",
"}  c #DF5E4B",
"|  c #CB5850",
" . c #CA5B55",
".. c #D55A52",
"X. c #E25F48",
"o. c #DD654E",
"O. c #C6645A",
"+. c #CD6C5D",
"@. c #D66256",
"#. c #DB6150",
"$. c #D96554",
"%. c #E56345",
"&. c #E5654D",
"*. c #E6664F",
"=. c #E86F4E",
"-. c #E36B52",
";. c #EE6C55",
":. c #EC6C58",
">. c #ED6C59",
",. c #F06D55",
"<. c #E27259",
"1. c #C76C63",
"2. c #C9776A",
"3. c #CD746B",
"4. c #D57567",
"5. c #DF7460",
"6. c #D07966",
"7. c #6F6F84",
"8. c #747689",
"9. c #8A7785",
"0. c #807B88",
"q. c #927D82",
"w. c #987E8A",
"e. c #9A7E8A",
"r. c #858187",
"t. c #82818B",
"y. c #9C848C",
"u. c #9C868E",
"i. c #8D8C92",
"p. c #938E9A",
"a. c #9C8D99",
"s. c #AC8086",
"d. c #A4868F",
"f. c #BA878D",
"g. c #A78E91",
"h. c #B38B91",
"j. c #9591A4",
"k. c #9D9AA6",
"l. c #9399AA",
"z. c #A19DA3",
"x. c #AB9EAE",
"c. c #BAA6AE",
"v. c #ACA3B8",
"b. c #A3AFBE",
"n. c #B3ABB6",
"m. c #B7ADB6",
"M. c #B4B1B6",
"N. c #B1B6BA",
"B. c #C58C92",
"V. c #CC9B9C",
"C. c #CF9E9F",
"Z. c #D19C9F",
"A. c #D99C9B",
"S. c #CE98A1",
"D. c #D0A2A8",
"F. c #DDA5AD",
"G. c #DDACAE",
"H. c #CFB1B9",
"J. c #E2A6A4",
"K. c #E1ADAB",
"L. c #E6ABAE",
"P. c #E7AFB1",
"I. c #E8B4B1",
"U. c #E9B5B6",
"Y. c #EEB5B7",
"T. c #E0B6BA",
"R. c #EBB5BD",
"E. c #EABEB9",
"W. c #EFBEBC",
"Q. c #F0B8B6",
"!. c #F2BAB8",
"~. c #F0C2BC",
"^. c #F5C0BE",
"/. c #F4C4BD",
"(. c #A7B6C3",
"). c #A6B2C4",
"_. c #ABB3C0",
"`. c #A8B7C7",
"'. c #C0B7C9",
"]. c #C7BACD",
"[. c #C1BDCD",
"{. c #D3B6C6",
"}. c #D2BBC9",
"|. c #F2BEC0",
" X c #BBC0CD",
".X c #C2C8CD",
"XX c #CCCBCE",
"oX c #D4C3CB",
"OX c #D9D7D8",
"+X c #DED4D8",
"@X c #F6C4C3",
"#X c #ECD2D7",
"$X c #E9D1DD",
"%X c #F2D3D4",
"&X c #F8D9DC",
"*X c #D5D2E5",
"=X c #D3D8E7",
"-X c #DADAE7",
";X c #D1D7EA",
":X c #E8DDE8",
">X c #F6DDE2",
",X c #F5DFE6",
"<X c #F3DCEB",
"1X c #DDE3F2",
"2X c #E9E0E5",
"3X c #EFE1E5",
"4X c #E2E2EB",
"5X c #E6E4E9",
"6X c #E5E2EE",
"7X c #EBE0E8",
"8X c #EBE2ED",
"9X c #E8E6ED",
"0X c #F1E0E4",
"qX c #F5E5E7",
"wX c #F6E2EB",
"eX c #FCE4E9",
"rX c #EBE7F8",
"tX c #FFE7F3",
"yX c #F4E9F6",
/* pixels */
"j I ,.P v < b %.%.m > l ] =.L 4 ",
"j U ;.T z < n %.X.M d f ] -.G 4 ",
"j ` >.Y x 1 Z *.{ M > f ..-.G 4 ",
"9 _ <.' B 6 V $.@.A q u  .5.K 0 ",
"s W 3.~ a   S +.1.a t p ^ 2.E e ",
"A.F.Q.U.F.e.V.Q.L.F.B.) U.~.K.C.",
"%X&Xd.y.9.a.y.H.tX{.e.g.q.q.u.$X",
"+X2Xx.o 8.l.& * ].v.O z.r.X k.*X",
"OX9XrX- ).`.= ; j.7.$ N..X$ 1X;X",
"OX5X6X% b.(.$ k.[.% @ N..X+ -X=X",
"+X2X8Xp. X_.r.m.yX'.0.M.XXi.4X-X",
"#X>X0XwX:Xn.oXeX,X<X}.c.3XqX>X:X",
"P.Y.@X~.T.h.C.^.|.R.S.f.~./.~.G.",
"s Q 4.! p . S +.O.R y i ^ 4.H r ",
"g _ >.' c , v o.#.C 7 g | <.D 2 ",
"h I >.Y z : N *.} Z 7 f ] -.F 2 "
};
