/* XPM */
static char *result[] = {
/* columns rows colors chars-per-pixel */
"32 32 126 2 ",
"   c #010104",
".  c #05060A",
"X  c #07080D",
"o  c #0A0B0F",
"O  c #0B0D13",
"+  c #0C0D1A",
"@  c #0E1115",
"#  c #121216",
"$  c #13141A",
"%  c #17181E",
"&  c #18191D",
"*  c #171922",
"=  c #1B1C22",
"-  c #161829",
";  c #1E2026",
":  c #1E202B",
">  c #212326",
",  c #24252B",
"<  c #27282D",
"1  c #2A2B2F",
"2  c #272A32",
"3  c #2C2D34",
"4  c #2A2C3B",
"5  c #2F3036",
"6  c #2E303D",
"7  c #303134",
"8  c #32343B",
"9  c #37383E",
"0  c #3A3A3E",
"q  c #333542",
"w  c #363840",
"e  c #3B3C43",
"r  c #373A4B",
"t  c #3B3E4C",
"y  c #3E424B",
"u  c #404146",
"i  c #42434A",
"p  c #434552",
"a  c #474953",
"s  c #4A4B53",
"d  c #464959",
"f  c #4C4E5C",
"g  c #4F5155",
"h  c #53545C",
"j  c #57585D",
"k  c #585A5E",
"l  c #4D5160",
"z  c #525563",
"x  c #575A64",
"c  c #5A5C65",
"v  c #5B5D6C",
"b  c #5F6067",
"n  c #5D606C",
"m  c #5F6272",
"M  c #63646C",
"N  c #616574",
"B  c #676A74",
"V  c #6B6C74",
"C  c #666B79",
"Z  c #6A6D7B",
"A  c #6D7078",
"S  c #73757C",
"D  c #77787B",
"F  c #797A7E",
"G  c #6D7080",
"H  c #727582",
"J  c #767984",
"K  c #7C7D86",
"L  c #777C8A",
"P  c #7A7D8C",
"I  c #7D808D",
"U  c #808187",
"Y  c #83858D",
"T  c #86888F",
"R  c #828492",
"E  c #868996",
"W  c #8A8B93",
"Q  c #8C8E9A",
"!  c #8E9097",
"~  c #8E909B",
"^  c #919295",
"/  c #91939B",
"(  c #9295A1",
")  c #9699A5",
"_  c #9B9CA4",
"`  c #9A9DAA",
"'  c #9EA0A5",
"]  c #9DA1AB",
"[  c #9EA1B0",
"{  c #A3A4AD",
"}  c #A3A5B4",
"|  c #A6A9B3",
" . c #AAABB3",
".. c #A6AAB9",
"X. c #AAADBA",
"o. c #AEB1B9",
"O. c #B1B2B6",
"+. c #B2B4BC",
"@. c #B9BBBE",
"#. c #B3B7C3",
"$. c #B6B9C5",
"%. c #BCBEC4",
"&. c #B7BBC9",
"*. c #B9BDCA",
"=. c #BEC2CE",
"-. c #C3C5CC",
";. c #C3C6D1",
":. c #C6C9D2",
">. c #C9CBD3",
",. c #CBCEDA",
"<. c #CED0D5",
"1. c #CED1DB",
"2. c #D2D5DD",
"3. c #D2D6E1",
"4. c #D6D9E3",
"5. c #DADDE4",
"6. c #DEE1E9",
"7. c #E3E7EF",
"8. c #E6E9EF",
"9. c #E8EBEF",
"0. c #E6E9F2",
"q. c #E9ECF3",
"w. c #EFF2F8",
"e. c #F3F6FB",
"r. c #F7FAFD",
"t. c None",
/* pixels */
"t.t.t.t.t.t.t.t.t.t.% # # $ # # % # $ # # @ t.t.t.t.t.t.t.t.t.t.",
"t.t.t.t.t.t.t.t.t.t.7 8 y s s g g g s u 0 1 t.t.t.t.t.t.t.t.t.t.",
"t.t.t.t.t.t.t.t.% 8 k I ' +.@.%.%.@.O.' D k 7 & t.t.t.t.t.t.t.t.",
"t.t.t.t.t.t.t.t.y k I o.2.q.e.r.r.e.9.<.O.U j u t.t.t.t.t.t.t.t.",
"t.t.t.t.t.t.& e D ' #.<.4.7.w.e.e.w.9.6.<.@.' D 0 & t.t.t.t.t.t.",
"t.t.t.t.t.t.& u / =.1.4.4.6.7.q.q.9.6.6.6.<.-.^ u & t.t.t.t.t.t.",
"t.t.t.t.t.t.= u ( =.3.4.4.4.4.4.6.6.2.4.2.2.>.^ u & t.t.t.t.t.t.",
"t.t.t.t.t.t.= u I =.,.3.3.3.3.3.2.2.4.2.2.2.-.T u & t.t.t.t.t.t.",
"t.t.t.t.t.t.* e I o.;.1.3.3.3.3.4.5.4.4.2.:.O.K 0 % t.t.t.t.t.t.",
"t.t.t.t.t.t.% 8 V / +.=.=.=.,.,.1.,.3.,.:.+._ V 7 # t.t.t.t.t.t.",
"t.t.t.t.t.t.@ 2 g I ) X.#.=.#.=.*.*.&.#.X._ K j < @ t.t.t.t.t.t.",
"t.t.t.t.t.t.@ , a A I / ` ` ` ` [ [ [ ` ( R V d , O t.t.t.t.t.t.",
"t.t.t.t.t.t.@ , s B I I I H I I P P P P L H B d , + t.t.t.t.t.t.",
"t.t.t.t.t.t.O ; y n m B C m C C C m m m N m c p = O t.t.t.t.t.t.",
"t.t.t.t.t.t.O * 3 y z n C Z C m l d d d d d p q - + t.t.t.t.t.t.",
"t.t.t.t.t.t.# = 8 y z n m C n l r q 4 4 4 4 4 : # O t.t.t.t.t.t.",
"t.t.t.t.t.t.& 7 h B Z C m l r 4 - + + + + O O X .   t.t.t.t.t.t.",
"t.t.t.t.t.t.; y S ~ ( E G v t q - + + + + & & & # # t.t.t.t.t.t.",
"t.t.t.t.t.t.& i ! =.*.&.[ E C z r q 4 4 r p h f u 5 , ; t.t.t.t.",
"t.t.t.t.t.t.< g ' >.3.,.#.#.) R G m v v Z H P J M a 3 ; t.t.t.t.",
"t.t.t.t.; < 0 M | :.;.=.&.*.=.&.} [ ` ) ` ) ( Q K b 0 > o   t.t.",
"t.t.t.t.> 0 k U { o.] _ ` ..*.;.#.#.} ` ~ E U H V k 8 & o   t.t.",
"t.t.. # 7 g U _ ' ! A b c Z Q ] ) ~ P C z s i e 0 7 = o .   t.t.",
"t.t.. # 0 M _ +.| E x e 8 e n L R E P m d 6 ; & & & o .     t.t.",
"t.t.  # 0 V  .-.%._ b 8 = = w x Y ` _ W V i = o . . .   t.t.t.t.",
"t.t.  # 9 V ^ { { W c w = # - t H _ o.| T j > .         t.t.t.t.",
"t.t.t.t.t.t.k k h f s i 8 , - 2 c W O.O./ M < . t.t.t.t.t.t.t.t.",
"t.t.t.t.t.t.7 1 : < 9 w 8 , $ = e M U W D k < . t.t.t.t.t.t.t.t.",
"t.t.t.t.t.t.t.t.# $ = = * + o O = < 9 e e 8 t.t.t.t.t.t.t.t.t.t.",
"t.t.t.t.t.t.t.t.O O O @ O o . X X O # $ & & t.t.t.t.t.t.t.t.t.t.",
"t.t.t.t.t.t.t.t.t.t.t.t.t.t.t.t.t.t.t.t.t.t.t.t.t.t.t.t.t.t.t.t.",
"t.t.t.t.t.t.t.t.t.t.t.t.t.t.t.t.t.t.t.t.t.t.t.t.t.t.t.t.t.t.t.t."
};
