/* XPM */
static char *a3019b8244fc472fe686fbbb1e0a0309wurb94EPbwx05G0g[] = {
/* columns rows colors chars-per-pixel */
"16 16 149 2 ",
"   c None",
".  c black",
"X  c #000001",
"o  c #010102",
"O  c #000003",
"+  c #000004",
"@  c #000007",
"#  c #00000A",
"$  c #03050B",
"%  c #050509",
"&  c #060608",
"*  c #06070C",
"=  c #0A0B0E",
"-  c #000213",
";  c #0B0C12",
":  c #0B0C13",
">  c #0D0D10",
",  c #0C0D13",
"<  c #0C0E14",
"1  c #0D0F1A",
"2  c #0F1016",
"3  c #0F1018",
"4  c #0E1019",
"5  c #0F121A",
"6  c #101217",
"7  c #111419",
"8  c #131518",
"9  c #14141B",
"0  c #18191F",
"q  c #181A1F",
"w  c #191B1F",
"e  c #1D1D1E",
"r  c #191920",
"t  c #1B1B21",
"y  c #1A1C22",
"u  c #1B1D22",
"i  c #1D1D21",
"p  c #1F1F20",
"a  c #1D1D22",
"s  c #1C1E22",
"d  c #1E1F25",
"f  c #1F2025",
"g  c #1E2028",
"h  c #202123",
"j  c #212227",
"k  c #202228",
"l  c #212328",
"z  c #23252A",
"x  c #2B2B2F",
"c  c #2B2B33",
"v  c #242738",
"b  c #2C2F38",
"n  c #2C303A",
"m  c #323239",
"M  c #30323C",
"N  c #353744",
"B  c #373941",
"V  c #393B4B",
"C  c #3A3C4C",
"Z  c #3B3D4D",
"A  c #3E404C",
"S  c #3F4253",
"D  c #42444D",
"F  c #43454E",
"G  c #47484B",
"H  c #474851",
"J  c #484A53",
"K  c #454858",
"L  c #504F54",
"P  c #54565B",
"I  c #525763",
"U  c #515564",
"Y  c #575866",
"T  c #5C5F68",
"R  c #5C5E6B",
"E  c #5D5F6C",
"W  c #5F606A",
"Q  c #60626B",
"!  c #656870",
"~  c #676970",
"^  c #64687A",
"/  c #666A7A",
"(  c #666B7A",
")  c #6B6E7F",
"_  c #6B707F",
"`  c #6D727E",
"'  c #6F7180",
"]  c #737480",
"[  c #717485",
"{  c #757A84",
"}  c #787B82",
"|  c #7B7C83",
" . c #87888B",
".. c #87898D",
"X. c #848793",
"o. c #8B8D94",
"O. c #8A8C99",
"+. c #92939E",
"@. c #93959D",
"#. c #9699A2",
"$. c #9699A5",
"%. c #9799A6",
"&. c #989AA1",
"*. c #989AA5",
"=. c #A7A9B6",
"-. c #ABABB2",
";. c #A8ABB9",
":. c #ABAFBE",
">. c #AEB0BA",
",. c #ADB2BE",
"<. c #B0B2B9",
"1. c #B5B7BA",
"2. c #B6B8BF",
"3. c #B8BABE",
"4. c #ADB1C0",
"5. c #AEB1C0",
"6. c #B2B4C3",
"7. c #B7B9C0",
"8. c #B5B9C3",
"9. c #B6BAC6",
"0. c #BCBEC7",
"q. c #B8BBCA",
"w. c #BFC0C9",
"e. c #C6C8D0",
"r. c #C6CAD4",
"t. c #CACAD1",
"y. c #CBCED7",
"u. c #CFD3DE",
"i. c #D2D5DD",
"p. c #D0D4DF",
"a. c #D2D5DF",
"s. c #D0D5E0",
"d. c #D4D7E1",
"f. c #D2D6E4",
"g. c #D3D7E4",
"h. c #D5D8E4",
"j. c #D5D9E5",
"k. c #D7DBE5",
"l. c #D8DAE0",
"z. c #D8DBE2",
"x. c #DCDEE2",
"c. c #D8DCE5",
"v. c #DBDFE7",
"b. c #DEE0E8",
"n. c #DFE2E8",
"m. c #EEF1F9",
"M. c #EFF3F9",
"N. c #F1F4F5",
"B. c #F2F5F6",
/* pixels */
"          9 r r a r 8           ",
"        k o.n.B.B.x. .f         ",
"      a <.i.v.m.m.n.l.1.e       ",
"      f 2.k.s.u.d.i.l.7.a       ",
"      y #.r.p.f.k.k.y.&.0       ",
"      7 T $.,.:.4.5.$.W 2       ",
"      6 Q ` ( ( ' / ' E 4       ",
"      < b I _ ( S V Z N 1       ",
"      z } { U v - # @ O O       ",
"      f e.c.;.[ K V Y [ H d     ",
"    f P w.8.9.g.q.6.=.#.| x O   ",
"  & G -.@.F A X.O.E M d l = O   ",
"  O L t.w.F % n *.>.~ = O O     ",
"      m c J B 4 ~ 2...=         ",
"        ; 2 ; $ ; 0 a           ",
"                                "
};
