/* XPM */
static char *result[] = {
/* columns rows colors chars-per-pixel */
"32 32 195 2 ",
"   c #040F31",
".  c #011436",
"X  c #021539",
"o  c #01193C",
"O  c #0B1C3E",
"+  c #031C44",
"@  c #0A1D42",
"#  c #011D49",
"$  c #062145",
"%  c #0B2145",
"&  c #03234C",
"*  c #0A244B",
"=  c #07294E",
"-  c #0D294E",
";  c #012552",
":  c #082750",
">  c #052954",
",  c #0B2A53",
"<  c #012D5A",
"1  c #082D59",
"2  c #102D55",
"3  c #03315D",
"4  c #0B325C",
"5  c #13355B",
"6  c #18375C",
"7  c #043562",
"8  c #0D3562",
"9  c #033A65",
"0  c #0C3A66",
"q  c #023D6B",
"w  c #0D3D6A",
"e  c #123662",
"r  c #133963",
"t  c #1B3E66",
"y  c #123D6A",
"u  c #1A3F6A",
"i  c #013E70",
"p  c #04416C",
"a  c #0B426D",
"s  c #15426D",
"d  c #1B446B",
"f  c #064474",
"g  c #0C4574",
"h  c #0B4976",
"j  c #094679",
"k  c #0D4A7A",
"l  c #114572",
"z  c #194572",
"x  c #144975",
"c  c #1B4A75",
"v  c #134C7B",
"b  c #1C4C7A",
"n  c #15527F",
"m  c #19527F",
"M  c #22496E",
"N  c #21456C",
"B  c #214774",
"V  c #234A72",
"C  c #224D7A",
"Z  c #294E7B",
"A  c #255176",
"S  c #2A5275",
"D  c #24527C",
"F  c #29537B",
"G  c #2F587E",
"H  c #30567F",
"J  c #325B7F",
"K  c #155281",
"L  c #1C5483",
"P  c #1E5985",
"I  c #1C5A8A",
"U  c #235683",
"Y  c #2A5482",
"T  c #245986",
"R  c #2D5984",
"E  c #255E8B",
"W  c #2B5D8B",
"Q  c #315A85",
"!  c #395F87",
"~  c #335E89",
"^  c #385D89",
"/  c #26618D",
"(  c #2B618E",
")  c #3A6187",
"_  c #35638D",
"`  c #3D678D",
"'  c #3E688E",
"]  c #356387",
"[  c #256191",
"{  c #2C6492",
"}  c #2D6895",
"|  c #2E6B99",
" . c #336594",
".. c #3B6791",
"X. c #336996",
"o. c #3C6B95",
"O. c #346C9A",
"+. c #3B6D9A",
"@. c #36719D",
"#. c #3C729D",
"$. c #3D77A3",
"%. c #3E79A5",
"&. c #436A8E",
"*. c #426C96",
"=. c #416C99",
"-. c #44719C",
";. c #4E7599",
":. c #4E789D",
">. c #4C7395",
",. c #4376A3",
"<. c #4A75A2",
"1. c #4479A5",
"2. c #4B7AA4",
"3. c #447DAA",
"4. c #4B7EAA",
"5. c #557DA4",
"6. c #4F82AF",
"7. c #5B82A7",
"8. c #5383AB",
"9. c #5C86AE",
"0. c #5482A6",
"q. c #4C85B2",
"w. c #4F8BB6",
"e. c #5689B4",
"r. c #5B8BB5",
"t. c #5E8DB9",
"y. c #568EBB",
"u. c #5B92BD",
"i. c #6386A6",
"p. c #6589A7",
"a. c #6386A9",
"s. c #658BA9",
"d. c #698EAD",
"f. c #6289B3",
"g. c #628EBC",
"h. c #6791B2",
"j. c #6E92B2",
"k. c #6392BD",
"l. c #6B97BF",
"z. c #6C98BF",
"x. c #7395B5",
"c. c #7597BB",
"v. c #7A9CBD",
"b. c #5D96C0",
"n. c #6395C4",
"m. c #6599C4",
"M. c #6999C4",
"N. c #699DC8",
"B. c #6A95C2",
"V. c #729CC3",
"C. c #7FA5C4",
"Z. c #7EA7CD",
"A. c #77ABD5",
"S. c #7CABD4",
"D. c #7DADD9",
"F. c #7CB0DA",
"G. c #81A5CB",
"H. c #8DAECB",
"J. c #8EB0CD",
"K. c #92B2CF",
"L. c #82AEDB",
"P. c #87B3D9",
"I. c #8EB8DE",
"U. c #8BB5DB",
"Y. c #93B3D3",
"T. c #98B6D5",
"R. c #97BAD7",
"E. c #9CB9D6",
"W. c #93B3D8",
"Q. c #9EBCDC",
"!. c #9ABEE2",
"~. c #9AC5E9",
"^. c #A8C7E4",
"/. c #ABCBE6",
"(. c #A5CAEC",
"). c #ADCCEB",
"_. c #A7C4E7",
"`. c #B0CBE7",
"'. c #B2CCEB",
"]. c #BACFEC",
"[. c #B4D2EE",
"{. c #BBD2EE",
"}. c #ADCFF2",
"|. c #A6CCF2",
" X c #ABD4F7",
".X c #B6D5F1",
"XX c #BBD5F3",
"oX c #B7D8F3",
"OX c #BCD9F5",
"+X c #B4D6F8",
"@X c #BCD6F8",
"#X c #B5D9FA",
"$X c #BDDBF9",
"%X c #C1D6F7",
"&X c #C1D8F7",
/* pixels */
"&X%XXXXX.X.XoXoXoXoXoXOXOXOX&X].].].].&XOXOXOX.X[..X[.XX{.XX%X%X",
"'.'.XXXXXX.X)./././.`.`.`.`.].].&X].{.].[.).).)././.^.)..XXX%X%X",
"Y.E.'.XX#X/.R.J.J.K.K.K.K.E.`.&XOXOXOX`.R.J.J.K.K.J.J.R.'.@XXX@X",
"p.c.T.}.#X(.C.h.s.s.s.s.p.x.E.`.OXOXoX^.v.i.s.d.j.x.j.v.!.}.)._.",
"S ' x.!. X~.h.&.J F A S S &.v.!.[.oX#XW.;.S S J &.>.;.a.G.W.W.W.",
"s ] f.P.~.P.0.] G F F b d J 7.Z.~.|.~.Z.' d s A ` ;.:.5.5.f.g.5.",
"~ -.k.A.S.N.:.#.0.r.r.2.` ] *.9.Z.I.U.C.-.] G ' 9.B.B.9...Y Y Y ",
"( X.0.y.k.e.#.-.l.S.A.m.0.o._ o.8.t.t.0.-.o.X.2.M.S.S.g.T w w y ",
"g v K [ ,.,.O.,.N.D.A.n.4.+.X.( U m P W  .+.+.4.M.S.D.n.U w E ( ",
"j j j K [  .[  .4.n.b.4.%.O.O./ v f g L _  .( +.e.n.n.4.K w ( +.",
"[ [ [ I K k i K K I I I { | | } / / E E { E b L #.,.[ K i i [ +.",
"| @.O.[ j i i i j i K K I } $.%.@.@.%.1.,. .v k T E v i K K ( O.",
"| | @.[ K i i i I I [ I K I w.b.$.$.y.N.n.4.T w g b T W W (  .O.",
"| | O.{ K j K L [ O. .[ i K 3.q.} @.m.F.D.n.T 7 7 w U X.<.,. .E ",
"| | | X.{ ( E (  .O. .[ K i L K h / u.F.D.t.b < > 3 a W e.e.E h ",
"| } [ [ (  . .+.<.,.,.+.L j i q p n 0.y.e.-.u < < < 3 x :.,.v 9 ",
" .( K j z L W <.g.M.M.e.#.P f p p p x c z z y 0 0 7 > 3 z s 7 3 ",
"O.[ j i i y L =.B.D.S.m.#.P p 7 9 3 3 3 > 7 z c c d y 8 < < 1 3 ",
"O.W j 8 < < 8 Y g.L.D.u./ p 7 < < 3 3 p 9 s F ! ^ ^ ^ Y s 4 p 0 ",
"( U i i w 8 8 C <.g.u.0.P a 0 0 4 0 p p a x ~ o.*.*.*._ c 0 a a ",
"v i w w Y Y Y Y B B Y [ W E T T / D g a w x ~ o.*.*.o.] c p 9 0 ",
"7 7 < w Q =.=.Y 8 ; 8 z W o.o.+.#.( h 9 7 s C R Q Q R D a 4 3 9 ",
"< < < 8 Q *.*.Y w < < y ~ +.=.o.o.R a 3 < 3 4 8 w y 0 4 < < 3 3 ",
"; ; ; 8 Z ^ ^ Y w < < 8 Z Q Q Y G m r 4 8 8 e 8 3 < > ; & & = = ",
"# # ; 1 u B B u r 8 8 e e 0 e 8 8 0 e d F J J S d 4 ; & & # # # ",
"# # # : 8 e e e r r y e > ; ; ; ; < e M J ) ] J d e 4 ; & # + + ",
"* * * * : , , 2 t t t e ; # : : & > r d N M M M d t 6 5 , & # + ",
"* * * # # # # : 2 6 6 2 # # : : & : 2 5 5 5 5 5 5 5 5 5 , * & + ",
"O O % % % + o + + # # @ + + @ @ * * : , = = $ $ $ $ * - - % @ o ",
"  O O O @ O X . X X X X . + # + @ @ + + $ $ o . X o o $ % @ X . ",
"    O X X X . . .   . X . X X X X X X o o o . . . o o o X X . . ",
"      . . . . . . . . X X . X . X . X X o o . . . . X . .   . . "
};
