/* XPM */
static char *_78a703974144ceb8dea14940b0d9543wzwXTScfcCDWoCdy[] = {
/* columns rows colors chars-per-pixel */
"16 16 240 2 ",
"   c #BFD6F5",
".  c #BCD5F3",
"X  c #B6D5F1",
"o  c #B5D7F2",
"O  c #B5D5EE",
"+  c #BAD8F2",
"@  c #BDD5F1",
"#  c #BFD4F1",
"$  c #BACFEC",
"%  c #BBD3EF",
"&  c #BDDBF7",
"*  c #B7D6F2",
"=  c #B3D2EE",
"-  c #B5D3EF",
";  c #BBD2F2",
":  c #C2D6F7",
">  c #86A3C3",
",  c #B3D2F1",
"<  c #B7DAF8",
"1  c #7DA2BF",
"2  c #80A3BF",
"3  c #84A6C2",
"4  c #84A1BF",
"5  c #B3CEEC",
"6  c #C0DBF9",
"7  c #BAD7F5",
"8  c #7E9FBE",
"9  c #80A3C1",
"0  c #86A9C7",
"q  c #7D9EBD",
"w  c #B9D6F8",
"e  c #B6D0F3",
"r  c #133C64",
"t  c #7EA5CC",
"y  c #ADD9FC",
"u  c #3F6B8E",
"i  c #144367",
"p  c #123D62",
"a  c #133C61",
"s  c #84A8CC",
"d  c #AFD3F8",
"f  c #AACEF2",
"g  c #1A4469",
"h  c #143F64",
"j  c #3B6387",
"k  c #466E92",
"l  c #7FA2CA",
"z  c #80A3CB",
"x  c #3D6D99",
"c  c #71A0CA",
"v  c #6D9EC7",
"b  c #366891",
"n  c #75A5CD",
"m  c #71A1C9",
"M  c #3F6D96",
"N  c #38668D",
"B  c #7EAAD1",
"V  c #78A4CB",
"C  c #3B6992",
"Z  c #396790",
"A  c #7AA7D0",
"S  c #75A2CB",
"D  c #12416E",
"F  c #063966",
"G  c #003A6D",
"H  c #004172",
"J  c #4075A5",
"K  c #2E6592",
"L  c #77ACD8",
"P  c #6EA3CF",
"I  c #3C729F",
"U  c #316893",
"Y  c #003B68",
"T  c #084471",
"R  c #3A6C98",
"E  c #3B6D99",
"W  c #72A2D0",
"Q  c #79A9D7",
"!  c #063F6F",
"~  c #3A6B9A",
"^  c #306D9E",
"/  c #316B9B",
"(  c #004173",
")  c #003B6D",
"_  c #004072",
"`  c #2D6997",
"'  c #326D99",
"]  c #2F6B97",
"[  c #336B98",
"{  c #2E6391",
"}  c #043E6E",
"|  c #3B6C9B",
" . c #003E6E",
".. c #336A97",
"X. c #2B6897",
"o. c #336E9C",
"O. c #044273",
"+. c #336898",
"@. c #346B98",
"#. c #00406F",
"$. c #70ABD5",
"%. c #74ABD4",
"&. c #77A8D3",
"*. c #0D4270",
"=. c #063A69",
"-. c #396996",
";. c #386C98",
":. c #336A95",
">. c #2F6B99",
",. c #326A97",
"<. c #376899",
"1. c #366695",
"2. c #396998",
"3. c #316694",
"4. c #034573",
"5. c #003E6A",
"6. c #00426D",
"7. c #74A9D3",
"8. c #73A2CE",
"9. c #002A59",
"0. c #002857",
"q. c #073C68",
"w. c #75A6CF",
"e. c #00426B",
"r. c #306895",
"t. c #00426F",
"y. c #0B4171",
"u. c #3B6895",
"i. c #78A4D1",
"p. c #75A6D1",
"a. c #366D98",
"s. c #00406A",
"d. c #00426C",
"f. c #002C58",
"g. c #002957",
"h. c #15426D",
"j. c #0E3D69",
"k. c #002654",
"l. c #002C55",
"z. c #366A96",
"x. c #003C6A",
"c. c #00295A",
"v. c #002859",
"b. c #7DA8D5",
"n. c #75A4D0",
"m. c #00406B",
"M. c #002955",
"N. c #05406B",
"B. c #0C3F6B",
"V. c #3B6690",
"C. c #426994",
"Z. c #436D97",
"A. c #0B3E67",
"S. c #0E446C",
"D. c #063E6C",
"F. c #002F60",
"G. c #3D6996",
"H. c #3B6794",
"J. c #002354",
"K. c #144473",
"L. c #346692",
"P. c #336894",
"I. c #3A6691",
"U. c #406A94",
"Y. c #0C3C68",
"T. c #033A65",
"R. c #002C5B",
"E. c #002454",
"W. c #3F6592",
"Q. c #3D6390",
"!. c #003160",
"~. c #002756",
"^. c #406B96",
"/. c #3C6A94",
"(. c #376590",
"). c #002E5C",
"_. c #002856",
"`. c #002854",
"'. c #002552",
"]. c #001642",
"[. c #002450",
"{. c #183D66",
"}. c #0F3762",
"|. c #123A65",
" X c #002855",
".X c #002350",
"XX c #183F6A",
"oX c #3F668F",
"OX c #40678E",
"+X c #002752",
"@X c #001B47",
"#X c #10274F",
"$X c #07234A",
"%X c #03244B",
"&X c #01274F",
"*X c #1F4066",
"=X c #1C3D65",
"-X c #001E49",
";X c #0B2B54",
":X c #01234D",
">X c #1A3B63",
",X c #173B62",
"<X c #1B4166",
"1X c #193D63",
"2X c #1B3C63",
"3X c #062750",
"4X c #05234A",
"5X c #041338",
"6X c #122244",
"7X c #081F41",
"8X c #001438",
"9X c #00183C",
"0X c #00153A",
"qX c #00153D",
"wX c #071E44",
"eX c #0B2349",
"rX c #062247",
"tX c #012347",
"yX c #00183A",
"uX c #00173A",
"iX c #052346",
"pX c #13274A",
"aX c #001437",
"sX c #040E30",
"dX c #051435",
"fX c #011336",
"gX c #001536",
"hX c #001234",
"jX c #001638",
"kX c #001238",
"lX c #011339",
"zX c #001137",
"xX c #001439",
"cX c #001B3C",
"vX c #001333",
"bX c #001737",
"nX c #001738",
"mX c #001134",
"MX c #011235",
"NX c white",
/* pixels */
"  . X o O + @ # $ % & * = - ; : ",
"> , < 1 2 3 4 5 6 7 8 9 0 q w e ",
"r t y u i p a s d f g h j k l z ",
"x c v b n m M N B V C Z A S D F ",
"G H J K L P I U Y T R E W Q ! ~ ",
"^ / ( ) _ H ` ' ] [ { } |  . ...",
"X.o.( O.+.@.#.$.] %.&.*.=.-.;.:.",
">.,.<.1.2.3.4.5.6.7.8.9.0.q.w.e.",
"r.t.y.u.i.p.a.s.d.f.g.h.j.k.f.l.",
"z.x.c.v.b.n.m.f.M.N.B.V.C.Z.A.S.",
"D.F.G.H.J.K.L.P.;.N.B.I.U.V.Y.T.",
"R.E.W.Q.!.~.^./.(.)._.k.).`.'.f.",
"].[.{.{.}.|. X.X XXXoXOXr +X@X].",
"#X$X%X&X*X=X-X;X:X>X,X<X1X2X3X4X",
"5X6X7X8X9X0XqXwXeXrXtXyXuXiXpXaX",
"sXdXfXgXhXjXkXlXzXxXcXvXbXnXmXMX"
};
